<svg width="24" height="24" viewBox="0 0 24 24" fill="currentColor" xmlns="http://www.w3.org/2000/svg">
<path d="M22.2505 1.14996C22.2505 1.14996 22.223 1.15437 22.2106 1.15969C16.5323 2.60066 10.485 4.60744 6.01277 8.5758C4.11275 10.265 2.60147 12.4654 2.44455 15.0776C2.19908 19.1635 5.29857 22.6745 9.36682 22.9189C11.0416 23.0195 12.7214 22.5355 14.0898 21.5569C15.4048 20.6146 16.3008 19.2136 17.0307 17.7633C18.1585 15.5155 21.294 9.38472 21.294 9.38472C21.4031 9.17609 21.1971 8.93943 20.9776 9.02626C19.9384 9.24569 17.6081 9.96038 16.7166 10.4827C16.5947 10.5541 16.4478 10.4362 16.4891 10.3023C16.8848 8.98951 17.7885 7.71025 18.5005 6.6074C19.6886 4.76332 21.027 3.07981 22.5374 1.49755C22.5856 1.44892 22.6343 1.39123 22.6385 1.32178C22.6484 1.15568 22.421 1.12384 22.2503 1.15298L22.2505 1.14996Z" />
</svg>
