<svg width="375" height="375" viewBox="0 0 375 375" fill="none" xmlns="http://www.w3.org/2000/svg">
<g clip-path="url(#clip0_3076_18108)">
<rect width="374.459" height="374.459" fill="white"/>
<path d="M303.859 59.2305C303.859 59.2305 303.536 59.2826 303.389 59.3453C236.434 76.3363 165.128 99.9991 112.394 146.792C89.9899 166.709 72.1698 192.656 70.3194 223.458C67.425 271.636 103.972 313.035 151.943 315.917C171.691 317.104 191.498 311.396 207.634 299.858C223.139 288.746 233.704 272.226 242.31 255.125C255.609 228.621 292.581 156.33 292.581 156.33C293.868 153.87 291.438 151.079 288.85 152.103C276.597 154.691 249.118 163.118 238.607 169.276C237.169 170.119 235.438 168.729 235.924 167.15C240.59 151.67 251.246 136.586 259.642 123.581C273.651 101.837 289.433 81.9862 307.242 63.3291C307.81 62.7557 308.385 62.0755 308.434 61.2565C308.552 59.298 305.87 58.9225 303.857 59.2661L303.859 59.2305Z" fill="url(#paint0_radial_3076_18108)"/>
</g>
<defs>
<radialGradient id="paint0_radial_3076_18108" cx="0" cy="0" r="1" gradientUnits="userSpaceOnUse" gradientTransform="translate(97.5055 292.003) rotate(-68.4287) scale(154.478 132.633)">
<stop stop-color="#C7D6FF"/>
<stop offset="1" stop-color="#FF7B18"/>
</radialGradient>
<clipPath id="clip0_3076_18108">
<rect width="374.459" height="374.459" rx="80" fill="white"/>
</clipPath>
</defs>
</svg>
