<svg width="375" height="375" viewBox="0 0 375 375" fill="none" xmlns="http://www.w3.org/2000/svg">
<rect width="374.459" height="374.459" rx="89" fill="white"/>
<g clip-path="url(#clip0_3076_18108)">
<path d="M287.606 76.7814C287.606 76.7814 287.341 76.824 287.222 76.8753C232.408 90.7853 174.032 110.157 130.861 148.464C112.52 164.77 97.9312 186.012 96.4163 211.228C94.0469 250.67 123.967 284.562 163.238 286.921C179.405 287.892 195.62 283.22 208.83 273.774C221.524 264.677 230.173 251.153 237.219 237.153C248.106 215.455 278.374 156.273 278.374 156.273C279.427 154.259 277.438 151.975 275.319 152.813C265.288 154.931 242.792 161.83 234.187 166.872C233.01 167.562 231.593 166.423 231.991 165.131C235.811 152.458 244.534 140.109 251.408 129.463C262.877 111.662 275.796 95.4106 290.376 80.1368C290.841 79.6674 291.311 79.1105 291.352 78.44C291.448 76.8367 289.253 76.5292 287.604 76.8106L287.606 76.7814Z" fill="url(#paint0_radial_3076_18108)"/>
</g>
<defs>
<radialGradient id="paint0_radial_3076_18108" cx="0" cy="0" r="1" gradientUnits="userSpaceOnUse" gradientTransform="translate(118.673 267.344) rotate(-68.4287) scale(126.465 108.581)">
<stop stop-color="#C7D6FF"/>
<stop offset="1" stop-color="#FF7B18"/>
</radialGradient>
<clipPath id="clip0_3076_18108">
<rect width="190.707" height="221.228" fill="white" transform="translate(92.1289 80.2412)"/>
</clipPath>
</defs>
</svg>
