<svg width="113" height="38" viewBox="0 0 113 38" fill="none" xmlns="http://www.w3.org/2000/svg">
<g clip-path="url(#clip0_13306_10047)">
<path d="M15.1083 12.2581C14.2359 11.6897 13.1758 11.4004 11.9433 11.4004C11.1064 11.4004 10.3659 11.5171 9.71669 11.7557C9.06748 11.9942 8.49434 12.3038 7.99221 12.6845C7.49007 13.0651 7.03866 13.4914 6.63797 13.9685L6.77999 11.7404H4.15775L0.53125 32.4125H3.38173L4.8932 23.9061C5.12144 24.3832 5.45112 24.8096 5.87717 25.1902C6.30322 25.5709 6.82057 25.8805 7.42921 26.119C8.03785 26.3575 8.70229 26.4743 9.42759 26.4743C10.5688 26.4743 11.6238 26.2611 12.5925 25.8297C13.5613 25.4034 14.4134 24.8045 15.1438 24.033C15.8741 23.2616 16.4625 22.3581 16.8987 21.3228C17.3349 20.2874 17.5733 19.1556 17.6138 17.9375C17.6899 16.6991 17.5073 15.5876 17.0711 14.5979C16.6349 13.6082 15.9756 12.8266 15.1032 12.2581H15.1083ZM13.9113 21.2365C13.4345 22.1044 12.8106 22.7794 12.0448 23.2616C11.2789 23.7437 10.4065 23.9873 9.43266 23.9873C8.65157 23.9873 7.97192 23.8046 7.39371 23.4443C6.81549 23.0839 6.37423 22.5815 6.08005 21.947C5.78587 21.3075 5.66414 20.5513 5.72501 19.6783C5.76051 18.5567 6.01919 17.567 6.49596 16.7092C6.97273 15.8515 7.60166 15.1663 8.3929 14.6537C9.17906 14.1411 10.0616 13.8823 11.0304 13.8823C11.8267 13.8823 12.5063 14.0751 13.0541 14.4507C13.6069 14.8313 14.0279 15.349 14.3221 16.0088C14.6163 16.6636 14.7431 17.4198 14.7076 18.2775C14.6518 19.3789 14.383 20.3686 13.9113 21.2314V21.2365Z" fill="#1D1E1F"/>
<path d="M21.3817 5.43701C20.8289 5.43701 20.3775 5.6045 20.0275 5.9344C19.6775 6.26937 19.5 6.69063 19.5 7.20325C19.5 7.71586 19.6775 8.17264 20.0275 8.51777C20.3775 8.85782 20.8289 9.03038 21.3817 9.03038C21.9346 9.03038 22.3606 8.85782 22.7207 8.51777C23.0809 8.17772 23.2634 7.73616 23.2634 7.20325C23.2634 6.67033 23.0809 6.2643 22.7207 5.9344C22.3606 5.59942 21.9143 5.43701 21.3817 5.43701Z" fill="#1D1E1F"/>
<path d="M22.8075 11.7451H19.957V26.1338H22.8075V11.7451Z" fill="#1D1E1F"/>
<path d="M30.2518 14.4302C30.8959 14.0495 31.6009 13.8618 32.3617 13.8618C33.295 13.8618 34.0964 14.0902 34.771 14.5469C35.4455 15.0037 35.8767 15.6432 36.0694 16.4604H39.0365C38.7119 14.9174 37.9663 13.6892 36.7947 12.7756C35.6231 11.8621 34.1572 11.4053 32.3871 11.4053C31.0177 11.4053 29.7851 11.725 28.6947 12.3594C27.5991 12.9989 26.7521 13.8821 26.1434 15.0139C25.5348 16.1457 25.2305 17.4754 25.2305 18.998C25.2305 20.5207 25.5348 21.7388 26.1434 22.8807C26.7521 24.0227 27.6042 24.9058 28.6947 25.5351C29.7902 26.1645 31.0177 26.4792 32.3871 26.4792C34.137 26.4792 35.6028 26.0122 36.7795 25.0784C37.9562 24.1445 38.7119 22.9264 39.0315 21.4241H36.0643C35.9324 21.9773 35.6941 22.4493 35.3492 22.835C35.0093 23.2258 34.5731 23.5253 34.0507 23.7334C33.5283 23.9415 32.9602 24.0481 32.3516 24.0481C31.7835 24.0481 31.2357 23.9313 30.7133 23.7029C30.1909 23.4745 29.7395 23.1497 29.3591 22.7335C28.9787 22.3173 28.6794 21.7844 28.4614 21.1348C28.2433 20.4902 28.1317 19.7543 28.1317 18.9371C28.1317 17.8155 28.3193 16.8765 28.6997 16.1254C29.0801 15.3742 29.5924 14.8058 30.2416 14.4251L30.2518 14.4302Z" fill="#1D1E1F"/>
<path d="M53.1018 11.7457H49.6781L44.0888 17.7905V5.5791H41.2383V26.1344H44.0888V18.7649L50.2817 26.1344H53.8727L46.9494 18.3234L53.1018 11.7457Z" fill="#1D1E1F"/>
<path d="M59.4625 8.12129H56.9823L56.6121 11.7451H54.1318V14.1407H56.6121V21.5609C56.6121 22.7029 56.7947 23.6063 57.1548 24.2712C57.5149 24.936 58.0272 25.4131 58.6967 25.6973C59.3662 25.9816 60.1523 26.1237 61.0653 26.1237H63.4035V23.6976H61.75C60.9131 23.6976 60.3248 23.5504 59.9799 23.2561C59.6401 22.9617 59.4676 22.4034 59.4676 21.5863V14.1356H63.5202V11.74H59.4676V8.11621L59.4625 8.12129Z" fill="#1D1E1F"/>
<path d="M75.4091 12.3444C74.344 11.7151 73.1267 11.4004 71.7572 11.4004C70.3878 11.4004 69.1908 11.7151 68.1054 12.3444C67.02 12.9738 66.1679 13.8518 65.5542 14.9836C64.9354 16.1154 64.626 17.4452 64.626 18.9678C64.626 20.4904 64.9303 21.7592 65.5389 22.8911C66.1476 24.0229 66.9946 24.9009 68.075 25.5303C69.1604 26.1596 70.3878 26.4743 71.7522 26.4743C73.1166 26.4743 74.3135 26.1596 75.3888 25.5303C76.4641 24.9009 77.3162 24.0229 77.94 22.8911C78.569 21.7592 78.8834 20.4396 78.8834 18.9373C78.8834 17.435 78.569 16.0951 77.94 14.9684C77.3111 13.8467 76.4641 12.9687 75.399 12.3444H75.4091ZM75.3837 21.7339C74.9831 22.4952 74.4657 23.0636 73.8266 23.4443C73.1876 23.8249 72.4927 24.0127 71.7319 24.0127C70.9711 24.0127 70.2762 23.8249 69.6473 23.4443C69.0184 23.0636 68.5111 22.4952 68.1206 21.7339C67.7301 20.9726 67.5373 20.0387 67.5373 18.9373C67.5373 17.836 67.7301 16.8767 68.1206 16.1256C68.5111 15.3744 69.0285 14.806 69.6726 14.4253C70.3168 14.0447 71.0218 13.8569 71.7826 13.8569C72.5434 13.8569 73.2383 14.0497 73.8672 14.4253C74.4961 14.806 75.0033 15.3744 75.3939 16.1256C75.7844 16.8767 75.9772 17.8157 75.9772 18.9373C75.9772 20.059 75.7794 20.9726 75.3787 21.7339H75.3837Z" fill="#1D1E1F"/>
<path d="M89.6714 18.2979C88.8751 18.0036 87.9672 17.7599 86.9629 17.5722C86.2579 17.4402 85.6696 17.2778 85.1928 17.0849C84.716 16.8971 84.3508 16.6687 84.0922 16.3997C83.8335 16.1358 83.7067 15.8313 83.7067 15.4862C83.7067 14.9736 83.9248 14.5472 84.361 14.2173C84.7972 13.8824 85.4261 13.7199 86.2427 13.7199C87.0593 13.7199 87.739 13.9027 88.2259 14.263C88.7128 14.6234 89.0019 15.1309 89.0932 15.7755H91.8625C91.6698 14.3696 91.0916 13.2885 90.1228 12.5374C89.1541 11.7862 87.8708 11.4106 86.2731 11.4106C85.1725 11.4106 84.2088 11.5984 83.3922 11.9689C82.5756 12.3394 81.9518 12.8521 81.5257 13.5119C81.0997 14.1666 80.8816 14.9076 80.8816 15.7247C80.8816 16.4099 81.0236 16.9783 81.3076 17.4351C81.5917 17.8919 81.9771 18.2776 82.464 18.5923C82.951 18.907 83.5038 19.1608 84.1327 19.3485C84.7617 19.5414 85.3855 19.6987 86.0145 19.8358C86.7347 19.9525 87.3535 20.0946 87.8708 20.2621C88.3882 20.4296 88.7686 20.658 89.0272 20.9321C89.2859 21.2061 89.4127 21.6122 89.4127 22.1451C89.4127 22.5054 89.3113 22.8455 89.1135 23.1602C88.9157 23.4748 88.6113 23.7235 88.2005 23.9012C87.7897 24.0839 87.2825 24.1702 86.6738 24.1702C85.9891 24.1702 85.4058 24.0585 84.9189 23.8301C84.432 23.6017 84.0516 23.2972 83.7777 22.9165C83.5038 22.5359 83.3161 22.1197 83.2198 21.6629H80.3389C80.4505 22.6323 80.77 23.4748 81.2924 24.1905C81.8148 24.9061 82.53 25.4644 83.4328 25.8755C84.3356 26.2866 85.416 26.4896 86.6688 26.4896C87.81 26.4896 88.8041 26.2967 89.6511 25.9212C90.4981 25.5405 91.1524 25.0127 91.6191 24.3376C92.0857 23.6626 92.319 22.8658 92.319 21.9522C92.319 20.927 92.0755 20.1352 91.5937 19.582C91.1068 19.0288 90.4677 18.6075 89.6663 18.3132L89.6714 18.2979Z" fill="#1D1E1F"/>
<path d="M105.034 19.5668C104.547 19.0136 103.908 18.5923 103.107 18.2979C102.311 18.0036 101.403 17.7599 100.398 17.5722C99.6935 17.4402 99.1051 17.2778 98.6283 17.0849C98.1516 16.8971 97.7864 16.6687 97.5277 16.3997C97.269 16.1358 97.1422 15.8313 97.1422 15.4862C97.1422 14.9736 97.3603 14.5472 97.7965 14.2173C98.2327 13.8824 98.8617 13.7199 99.6783 13.7199C100.495 13.7199 101.175 13.9027 101.661 14.263C102.148 14.6234 102.437 15.1309 102.529 15.7755H105.298C105.105 14.3696 104.527 13.2885 103.558 12.5374C102.59 11.7862 101.306 11.4106 99.7087 11.4106C98.6081 11.4106 97.6444 11.5984 96.8278 11.9689C96.0112 12.3394 95.3873 12.8521 94.9613 13.5119C94.5352 14.1666 94.3171 14.9076 94.3171 15.7247C94.3171 16.4099 94.4591 16.9783 94.7432 17.4351C95.0272 17.8919 95.4127 18.2776 95.8996 18.5923C96.3865 18.907 96.9394 19.1608 97.5683 19.3485C98.1972 19.5414 98.8211 19.6987 99.45 19.8358C100.17 19.9525 100.789 20.0946 101.306 20.2621C101.824 20.4296 102.204 20.658 102.463 20.9321C102.721 21.2061 102.848 21.6122 102.848 22.1451C102.848 22.5054 102.747 22.8455 102.549 23.1602C102.351 23.4748 102.047 23.7235 101.636 23.9012C101.225 24.0839 100.718 24.1702 100.109 24.1702C99.4247 24.1702 98.8414 24.0585 98.3545 23.8301C97.8675 23.6017 97.4871 23.2972 97.2132 22.9165C96.9394 22.5359 96.7517 22.1197 96.6553 21.6629H93.7744C93.886 22.6323 94.2055 23.4748 94.728 24.1905C95.2504 24.9061 95.9655 25.4644 96.8684 25.8755C97.7712 26.2866 98.8515 26.4896 100.104 26.4896C101.246 26.4896 102.24 26.2967 103.087 25.9212C103.934 25.5405 104.588 25.0127 105.055 24.3376C105.521 23.6626 105.755 22.8658 105.755 21.9522C105.755 20.927 105.511 20.1352 105.029 19.582L105.034 19.5668Z" fill="#1D1E1F"/>
</g>
<defs>
<clipPath id="clip0_13306_10047">
<rect width="112.602" height="26.81" fill="white" transform="translate(0.40332 5.51953)"/>
</clipPath>
</defs>
</svg>
