<svg width="125" height="125" viewBox="0 0 125 125" fill="none" xmlns="http://www.w3.org/2000/svg">
<g filter="url(#filter0_d_8321_5954)">
<path d="M20 40C20 28.9543 28.9543 20 40 20H85C96.0457 20 105 28.9543 105 40V85C105 96.0457 96.0457 105 85 105H40C28.9543 105 20 96.0457 20 85V40Z" fill="white"/>
</g>
<path d="M82.3606 41.315C82.3606 41.315 82.3054 41.3239 82.2805 41.3346C70.8493 44.2354 58.6754 48.2753 49.6723 56.2641C45.8473 59.6646 42.8049 64.0944 42.489 69.3531C41.9949 77.5784 48.2345 84.6464 56.4244 85.1384C59.7959 85.341 63.1775 84.3666 65.9324 82.3966C68.5796 80.4995 70.3832 77.6792 71.8526 74.7596C74.1231 70.2346 80.4352 57.8925 80.4352 57.8925C80.6549 57.4725 80.24 56.9961 79.7982 57.1709C77.7062 57.6127 73.0149 59.0514 71.2204 60.1028C70.9748 60.2467 70.6793 60.0093 70.7623 59.7397C71.5589 57.0969 73.3782 54.5216 74.8116 52.3015C77.2034 48.5891 79.8977 45.2 82.9382 42.0147C83.0352 41.9168 83.1333 41.8007 83.1417 41.6609C83.1618 41.3265 82.704 41.2624 82.3603 41.3211L82.3606 41.315Z" fill="url(#paint0_radial_8321_5954)"/>
<defs>
<filter id="filter0_d_8321_5954" x="0" y="0" width="125" height="125" filterUnits="userSpaceOnUse" color-interpolation-filters="sRGB">
<feFlood flood-opacity="0" result="BackgroundImageFix"/>
<feColorMatrix in="SourceAlpha" type="matrix" values="0 0 0 0 0 0 0 0 0 0 0 0 0 0 0 0 0 0 127 0" result="hardAlpha"/>
<feOffset/>
<feGaussianBlur stdDeviation="10"/>
<feComposite in2="hardAlpha" operator="out"/>
<feColorMatrix type="matrix" values="0 0 0 0 0.989797 0 0 0 0 0.758908 0 0 0 0 0.495035 0 0 0 1 0"/>
<feBlend mode="normal" in2="BackgroundImageFix" result="effect1_dropShadow_8321_5954"/>
<feBlend mode="normal" in="SourceGraphic" in2="effect1_dropShadow_8321_5954" result="shape"/>
</filter>
<radialGradient id="paint0_radial_8321_5954" cx="0" cy="0" r="1" gradientUnits="userSpaceOnUse" gradientTransform="translate(47.1304 81.0557) rotate(-68.4287) scale(26.3737 22.644)">
<stop stop-color="#C7D6FF"/>
<stop offset="1" stop-color="#FF7B18"/>
</radialGradient>
</defs>
</svg>
