<svg width="24" height="24" viewBox="0 0 24 24" fill="currentColor" xmlns="http://www.w3.org/2000/svg">
<path fill-rule="evenodd" clip-rule="evenodd" d="M17.3999 3C20.1613 3 22.3999 5.23858 22.3999 8V13C22.3999 15.7614 20.1613 18 17.3999 18H8.59043L6.40051 20.261C6.23983 20.4268 5.95984 20.3566 5.89651 20.1345L5.25002 17.8671C3.04287 17.3477 1.3999 15.3657 1.3999 13V8C1.3999 5.23858 3.63848 3 6.3999 3H17.3999ZM18.5498 8C18.5498 7.58579 18.214 7.25 17.7998 7.25H5.7998C5.38559 7.25 5.0498 7.58579 5.0498 8C5.0498 8.41421 5.38559 8.75 5.7998 8.75H17.7998C18.214 8.75 18.5498 8.41421 18.5498 8ZM11.5 11.25C11.9142 11.25 12.25 11.5858 12.25 12C12.25 12.4142 11.9142 12.75 11.5 12.75H5.89651C5.4823 12.75 5.14651 12.4142 5.14651 12C5.14651 11.5858 5.4823 11.25 5.89651 11.25H11.5Z" />
</svg>
