<svg width="24" height="24" viewBox="0 0 24 24" fill="currentColor" xmlns="http://www.w3.org/2000/svg">
<path fill-rule="evenodd" clip-rule="evenodd" d="M1.80005 4.7998C1.80005 3.14295 3.14319 1.7998 4.80005 1.7998H19.3C20.9569 1.7998 22.3 3.14295 22.3 4.7998V19.2998C22.3 20.9567 20.9569 22.2998 19.3 22.2998H4.80005C3.14319 22.2998 1.80005 20.9567 1.80005 19.2998V4.7998ZM4.80005 3.7998C4.24776 3.7998 3.80005 4.24752 3.80005 4.7998V19.2998C3.80005 19.8521 4.24776 20.2998 4.80005 20.2998H19.3C19.8523 20.2998 20.3 19.8521 20.3 19.2998V4.7998C20.3 4.24752 19.8523 3.7998 19.3 3.7998H4.80005Z" />
<path fill-rule="evenodd" clip-rule="evenodd" d="M11 18V6H13V18H11Z" />
<path fill-rule="evenodd" clip-rule="evenodd" d="M6 11L18 11V13L6 13L6 11Z" />
</svg>
