<svg width="24" height="24" viewBox="0 0 24 24" fill="currentColor" xmlns="http://www.w3.org/2000/svg">
<path fill-rule="evenodd" clip-rule="evenodd" d="M3.1001 4.0001C3.1001 2.39847 4.39847 1.1001 6.0001 1.1001H18.0001C19.6017 1.1001 20.9001 2.39847 20.9001 4.0001V22.0001C20.9001 22.3255 20.7245 22.6255 20.4407 22.7849C20.157 22.9442 19.8094 22.9379 19.5316 22.7685L12.0001 18.1762L4.46864 22.7685C4.19082 22.9379 3.8432 22.9442 3.55947 22.7849C3.27574 22.6255 3.1001 22.3255 3.1001 22.0001V4.0001ZM6.0001 2.9001C5.39258 2.9001 4.9001 3.39258 4.9001 4.0001V20.3972L11.5316 16.3536C11.8193 16.1782 12.1809 16.1782 12.4686 16.3536L19.1001 20.3972V4.0001C19.1001 3.39258 18.6076 2.9001 18.0001 2.9001H6.0001Z" />
</svg>
