<svg width="24" height="24" viewBox="0 0 24 24" fill="currentColor" xmlns="http://www.w3.org/2000/svg">
<path d="M4 4C4 2.89543 4.89543 2 6 2H18C19.1046 2 20 2.89543 20 4V22L12 17.122L4 22L4 4Z" />
<path fill-rule="evenodd" clip-rule="evenodd" d="M3.19995 4.0002C3.19995 2.4538 4.45355 1.2002 5.99995 1.2002H18C19.5463 1.2002 20.7999 2.4538 20.7999 4.0002V22.0002C20.7999 22.2894 20.6438 22.5561 20.3916 22.6978C20.1394 22.8394 19.8304 22.8338 19.5835 22.6832L12 18.0591L4.41644 22.6832C4.16949 22.8338 3.86048 22.8394 3.60828 22.6978C3.35608 22.5561 3.19995 22.2894 3.19995 22.0002V4.0002Z" />
</svg>
