<svg width="24" height="24" viewBox="0 0 24 24" fill="currentColor" xmlns="http://www.w3.org/2000/svg">
<path fill-rule="evenodd" clip-rule="evenodd" d="M6.43311 14H17.4514V15.7875H6.43311V14ZM6.43311 17.6667H17.4514V19.4542H6.43311V17.6667Z" />
<path fill-rule="evenodd" clip-rule="evenodd" d="M17 6.39012L11.0172 12L7 8.23318L8.48253 6.84306L11.0172 9.21976L15.5175 5L17 6.39012Z" />
<path fill-rule="evenodd" clip-rule="evenodd" d="M2 4C2 2.34315 3.34315 1 5 1H19C20.6569 1 22 2.34315 22 4V20C22 21.6569 20.6569 23 19 23H5C3.34315 23 2 21.6569 2 20V4ZM5 3C4.44772 3 4 3.44772 4 4V20C4 20.5523 4.44772 21 5 21H19C19.5523 21 20 20.5523 20 20V4C20 3.44772 19.5523 3 19 3H5Z" />
</svg>
