<svg width="24" height="24" viewBox="0 0 24 24" fill="currentColor" xmlns="http://www.w3.org/2000/svg">
<path d="M1.19995 7.2C1.19995 6.53726 1.73721 6 2.39995 6H5.99995C6.66269 6 7.19995 5.46274 7.19995 4.8V4.2C7.19995 3.53726 7.73721 3 8.39995 3H15.6C16.2627 3 16.8 3.53726 16.8 4.2V4.8C16.8 5.46274 17.3372 6 18 6H21.6C22.2627 6 22.8 6.53726 22.8 7.2V19.2C22.8 19.8627 22.2627 20.4 21.6 20.4H2.39995C1.73721 20.4 1.19995 19.8627 1.19995 19.2V7.2Z" stroke="#1D1E1F" stroke-width="2"/>
<circle cx="12" cy="12.5999" r="4.2" stroke="#1D1E1F" stroke-width="2"/>
</svg>
