<svg width="24" height="24" viewBox="0 0 24 24" fill="currentColor" xmlns="http://www.w3.org/2000/svg">
<path d="M17 4C17 3.44772 16.5523 3 16 3H4C3.44772 3 3 3.44772 3 4V16C3 16.5523 3.44772 17 4 17H16C16.5523 17 17 16.5523 17 16V4ZM19 16C19 17.6569 17.6569 19 16 19H4C2.34315 19 1 17.6569 1 16V4C1 2.34315 2.34315 1 4 1H16C17.6569 1 19 2.34315 19 4V16Z" />
<path d="M6 20V19.8574H8V20C8 20.5523 8.44772 21 9 21H20C20.5523 21 21 20.5523 21 20V9C21 8.44772 20.5523 8 20 8H19.8574V6H20C21.6569 6 23 7.34315 23 9V20C23 21.6569 21.6569 23 20 23H9C7.34315 23 6 21.6569 6 20Z" />
</svg>
