<svg width="24" height="24" viewBox="0 0 24 24" fill="currentColor" xmlns="http://www.w3.org/2000/svg">
<path fill-rule="evenodd" clip-rule="evenodd" d="M6.43311 14H17.4514V15.7875H6.43311V14ZM6.43311 17.6667H17.4514V19.4542H6.43311V17.6667Z" />
<path fill-rule="evenodd" clip-rule="evenodd" d="M3 3.43269C3 2.08915 4.04132 1 5.32584 1H18.6742C19.9587 1 21 2.08915 21 3.43269V20.5673C21 21.9108 19.9587 23 18.6742 23H5.32584C4.04131 23 3 21.9108 3 20.5673V3.43269ZM5.32584 2.90385C5.0466 2.90385 4.82022 3.14062 4.82022 3.43269V20.5673C4.82022 20.8594 5.0466 21.0962 5.32584 21.0962H18.6742C18.9534 21.0962 19.1798 20.8594 19.1798 20.5673V3.43269C19.1798 3.14062 18.9534 2.90385 18.6742 2.90385H5.32584Z" />
<path fill-rule="evenodd" clip-rule="evenodd" d="M17 6.39012L11.0172 12L7 8.23318L8.48253 6.84306L11.0172 9.21976L15.5175 5L17 6.39012Z" />
</svg>
