<svg width="24" height="24" viewBox="0 0 24 24" fill="currentColor" xmlns="http://www.w3.org/2000/svg">
<path fill-rule="evenodd" clip-rule="evenodd" d="M5.0001 4.9001C4.39258 4.9001 3.9001 5.39258 3.9001 6.0001V19.0001C3.9001 19.6076 4.39258 20.1001 5.0001 20.1001H18.0001C18.6076 20.1001 19.1001 19.6076 19.1001 19.0001V11.9688H20.9001V19.0001C20.9001 20.6017 19.6017 21.9001 18.0001 21.9001H5.0001C3.39847 21.9001 2.1001 20.6017 2.1001 19.0001V6.0001C2.1001 4.39847 3.39847 3.1001 5.0001 3.1001H12.5626V4.9001H5.0001Z" />
<path fill-rule="evenodd" clip-rule="evenodd" d="M22.0321 1.43449L22.575 1.97731C23.6684 3.07078 23.6684 4.84364 22.575 5.9371L13.1385 15.3736C12.7955 15.7166 12.3693 15.9646 11.9016 16.0933L9.62584 16.7197C8.20457 17.1109 6.89855 15.8049 7.28975 14.3836L7.91615 12.1078C8.04487 11.6402 8.29287 11.214 8.63585 10.871L18.0723 1.43449C19.1658 0.341021 20.9387 0.34102 22.0321 1.43449ZM11.4239 14.3578C11.591 14.3119 11.7432 14.2233 11.8657 14.1008L21.3022 4.66431C21.6927 4.27379 21.6927 3.64062 21.3022 3.2501L20.7594 2.70728C20.3688 2.31676 19.7357 2.31676 19.3451 2.70728L9.90865 12.1438C9.78615 12.2663 9.69758 12.4185 9.65161 12.5855L9.02521 14.8613C9.00462 14.9361 9.07336 15.0048 9.14816 14.9842L11.4239 14.3578Z" />
</svg>
