<svg width="24" height="24" viewBox="0 0 24 24" fill="currentColor" xmlns="http://www.w3.org/2000/svg">
<path fill-rule="evenodd" clip-rule="evenodd" d="M12.0001 3.9001C7.52659 3.9001 3.9001 7.52659 3.9001 12.0001C3.9001 16.4736 7.52659 20.1001 12.0001 20.1001C16.4736 20.1001 20.1001 16.4736 20.1001 12.0001C20.1001 7.52659 16.4736 3.9001 12.0001 3.9001ZM2.1001 12.0001C2.1001 6.53248 6.53248 2.1001 12.0001 2.1001C17.4677 2.1001 21.9001 6.53248 21.9001 12.0001C21.9001 17.4677 17.4677 21.9001 12.0001 21.9001C6.53248 21.9001 2.1001 17.4677 2.1001 12.0001Z" />
<path fill-rule="evenodd" clip-rule="evenodd" d="M12.9001 6.6001L12.9001 11.6273L16.2729 15.0001L15.0001 16.2729L11.1001 12.3729L11.1001 6.6001H12.9001Z" />
</svg>
