<svg width="24" height="24" viewBox="0 0 24 24" fill="currentColor" xmlns="http://www.w3.org/2000/svg">
<path fill-rule="evenodd" clip-rule="evenodd" d="M1.77519 9.94645C1.70511 10.553 1.91598 11.1584 2.34776 11.5902L12.5736 21.816C13.3547 22.5971 14.621 22.5971 15.402 21.816L21.8163 15.4018C22.5973 14.6207 22.5973 13.3544 21.8163 12.5734L11.5904 2.34752C11.1587 1.91574 10.5533 1.70487 9.9467 1.77495L4.19673 2.43923C3.27398 2.54584 2.54608 3.27373 2.43948 4.19649L1.77519 9.94645ZM7.00009 8.99984C8.10466 8.99984 9.00009 8.10441 9.00009 6.99984C9.00009 5.89527 8.10466 4.99984 7.00009 4.99984C5.89552 4.99984 5.00009 5.89527 5.00009 6.99984C5.00009 8.10441 5.89552 8.99984 7.00009 8.99984Z" />
</svg>
