<svg width="24" height="24" viewBox="0 0 24 24" fill="currentColor" xmlns="http://www.w3.org/2000/svg">
<g clip-path="url(#clip0_14328_11653)">
<path fill-rule="evenodd" clip-rule="evenodd" d="M0.782985 21.287C2.00605 22.748 5.22282 22.2324 9.03425 20.252C9.72321 20.4982 10.4544 20.6615 11.2172 20.7291C16.0431 21.1568 20.3021 17.5913 20.7299 12.7653C20.7963 12.0162 20.7665 11.2806 20.6506 10.571C23.3403 7.118 24.455 3.98474 23.2171 2.50601C21.9701 1.01654 18.6509 1.58151 14.742 3.65858C14.1142 3.45195 13.4529 3.31349 12.7662 3.25262C7.94019 2.82487 3.6812 6.39035 3.25345 11.2163C3.19139 11.9166 3.2134 12.6049 3.31113 13.2713C0.649165 16.7048 -0.449066 19.8153 0.782985 21.287ZM5.65867 18.071C4.20475 18.6716 3.13559 18.7889 2.71947 18.2918C2.26543 17.7495 2.74931 16.6849 3.86759 15.3056C4.0786 15.8216 4.33765 16.3142 4.63966 16.7774C5.44765 16.7235 6.69659 16.6334 8.42197 15.8167C8.64262 15.7123 8.9039 16.0611 8.71842 16.2198C7.53976 17.2285 6.60535 17.804 5.65867 18.071ZM19.9066 3.90337C20.3333 4.41302 20.0034 5.48492 19.1068 6.8592C18.4522 5.95247 17.6269 5.17252 16.673 4.56969C18.2748 3.67186 19.4472 3.35459 19.9066 3.90337Z" />
</g>
<defs>
<clipPath id="clip0_14328_11653">
<rect width="24" height="24" fill="white"/>
</clipPath>
</defs>
</svg>
