<svg width="24" height="24" viewBox="0 0 24 24" fill="none" xmlns="http://www.w3.org/2000/svg">
<g clip-path="url(#clip0_14328_11653)">
<path fill-rule="evenodd" clip-rule="evenodd" d="M0.782994 21.2872C2.00605 22.7482 5.22282 22.2326 9.03425 20.2523C9.72322 20.4984 10.4545 20.6617 11.2172 20.7293C16.0432 21.157 20.3021 17.5915 20.7299 12.7656C20.7963 12.0164 20.7665 11.2808 20.6506 10.5712C23.3403 7.11821 24.455 3.98495 23.2171 2.50622C21.9701 1.01675 18.6509 1.58173 14.742 3.6588C14.1142 3.45216 13.4529 3.31371 12.7662 3.25284C7.9402 2.82509 3.68121 6.39056 3.25346 11.2165C3.19139 11.9168 3.21341 12.6051 3.31114 13.2715C0.649174 16.705 -0.449057 19.8155 0.782994 21.2872ZM5.65868 18.0712C4.20476 18.6718 3.1356 18.7891 2.71948 18.2921C2.26544 17.7497 2.74932 16.6851 3.8676 15.3058C4.07861 15.8218 4.33766 16.3144 4.63967 16.7776C5.44766 16.7238 6.6966 16.6336 8.42198 15.8169C8.64263 15.7125 8.90391 16.0613 8.71843 16.2201C7.53976 17.2287 6.60536 17.8042 5.65868 18.0712ZM19.9066 3.90359C20.3333 4.41323 20.0034 5.48513 19.1068 6.85942C18.4522 5.95269 17.6269 5.17273 16.673 4.56991C18.2748 3.67207 19.4472 3.3548 19.9066 3.90359Z" fill="#D3DCE4"/>
</g>
<defs>
<clipPath id="clip0_14328_11653">
<rect width="24" height="24" fill="white"/>
</clipPath>
</defs>
</svg>
