<svg width="24" height="24" viewBox="0 0 24 24" fill="currentColor" xmlns="http://www.w3.org/2000/svg">
<path fill-rule="evenodd" clip-rule="evenodd" d="M8.39995 4C8.2895 4 8.19995 4.08954 8.19995 4.2V4.8C8.19995 6.01503 7.21498 7 5.99995 7H2.39995C2.28949 7 2.19995 7.08954 2.19995 7.2V19.2C2.19995 19.3105 2.28949 19.4 2.39995 19.4H21.6C21.7104 19.4 21.8 19.3105 21.8 19.2V7.2C21.8 7.08954 21.7104 7 21.6 7H18C16.7849 7 15.8 6.01503 15.8 4.8V4.2C15.8 4.08954 15.7104 4 15.6 4H8.39995ZM6.19995 4.2C6.19995 2.98497 7.18493 2 8.39995 2H15.6C16.815 2 17.8 2.98497 17.8 4.2V4.8C17.8 4.91046 17.8895 5 18 5H21.6C22.815 5 23.8 5.98497 23.8 7.2V19.2C23.8 20.415 22.815 21.4 21.6 21.4H2.39995C1.18493 21.4 0.199951 20.415 0.199951 19.2V7.2C0.199951 5.98497 1.18492 5 2.39995 5H5.99995C6.11041 5 6.19995 4.91046 6.19995 4.8V4.2Z" />
<path fill-rule="evenodd" clip-rule="evenodd" d="M12 9.4C10.2326 9.4 8.79995 10.8327 8.79995 12.6C8.79995 14.3673 10.2326 15.8 12 15.8C13.7673 15.8 15.2 14.3673 15.2 12.6C15.2 10.8327 13.7673 9.4 12 9.4ZM6.79995 12.6C6.79995 9.72812 9.12807 7.4 12 7.4C14.8718 7.4 17.2 9.72812 17.2 12.6C17.2 15.4719 14.8718 17.8 12 17.8C9.12807 17.8 6.79995 15.4719 6.79995 12.6Z" />
</svg>
