<svg width="24" height="24" viewBox="0 0 24 24" fill="currentColor" xmlns="http://www.w3.org/2000/svg">
<path fill-rule="evenodd" clip-rule="evenodd" d="M12.9477 2.00488V13.7224H11.1477V2.00488H12.9477Z" />
<path fill-rule="evenodd" clip-rule="evenodd" d="M12.9479 17.3863V22.8053H11.1479V17.3863H12.9479Z" />
<path fill-rule="evenodd" clip-rule="evenodd" d="M20.1862 2.00491V6.44958L18.3862 6.44958V2.00491L20.1862 2.00491Z" />
<path fill-rule="evenodd" clip-rule="evenodd" d="M5.7096 2.00488L5.7096 6.44956H3.9096V2.00488L5.7096 2.00488Z" />
<path fill-rule="evenodd" clip-rule="evenodd" d="M20.1862 10.148L20.1862 22.8051H18.3862V10.148H20.1862Z" />
<path fill-rule="evenodd" clip-rule="evenodd" d="M5.7096 10.1477L5.7096 22.8049H3.9096L3.9096 10.1477H5.7096Z" />
<path fill-rule="evenodd" clip-rule="evenodd" d="M4.8096 6.44937C3.8076 6.44937 2.99531 7.26165 2.99531 8.26365C2.99531 9.26566 3.8076 10.0779 4.8096 10.0779C5.8116 10.0779 6.62388 9.26566 6.62388 8.26365C6.62388 7.26165 5.8116 6.44937 4.8096 6.44937ZM1.19531 8.26365C1.19531 6.26754 2.81348 4.64937 4.8096 4.64937C6.80571 4.64937 8.42388 6.26754 8.42388 8.26365C8.42388 10.2598 6.80571 11.8779 4.8096 11.8779C2.81348 11.8779 1.19531 10.2598 1.19531 8.26365Z" />
<path fill-rule="evenodd" clip-rule="evenodd" d="M12.0479 13.7575C11.0459 13.7575 10.2336 14.5698 10.2336 15.5718C10.2336 16.5738 11.0459 17.3861 12.0479 17.3861C13.0499 17.3861 13.8621 16.5738 13.8621 15.5718C13.8621 14.5698 13.0499 13.7575 12.0479 13.7575ZM8.43357 15.5718C8.43357 13.5757 10.0517 11.9575 12.0479 11.9575C14.044 11.9575 15.6621 13.5757 15.6621 15.5718C15.6621 17.5679 14.044 19.1861 12.0479 19.1861C10.0517 19.1861 8.43357 17.5679 8.43357 15.5718Z" />
<path fill-rule="evenodd" clip-rule="evenodd" d="M19.2861 6.51926C18.2841 6.51926 17.4719 7.33154 17.4719 8.33355C17.4719 9.33555 18.2841 10.1478 19.2861 10.1478C20.2881 10.1478 21.1004 9.33555 21.1004 8.33355C21.1004 7.33154 20.2881 6.51926 19.2861 6.51926ZM15.6719 8.33355C15.6719 6.33743 17.29 4.71926 19.2861 4.71926C21.2823 4.71926 22.9004 6.33743 22.9004 8.33355C22.9004 10.3297 21.2823 11.9478 19.2861 11.9478C17.29 11.9478 15.6719 10.3297 15.6719 8.33355Z" />
</svg>
