<svg width="24" height="24" viewBox="0 0 24 24" fill="currentColor" xmlns="http://www.w3.org/2000/svg">
<g clip-path="url(#clip0_14377_13330)">
<path fill-rule="evenodd" clip-rule="evenodd" d="M11.9999 2.4749C6.73939 2.4749 2.4749 6.73939 2.4749 11.9999C2.4749 17.2604 6.73939 21.5249 11.9999 21.5249C17.2604 21.5249 21.5249 17.2604 21.5249 11.9999C21.5249 6.73939 17.2604 2.4749 11.9999 2.4749ZM0.524902 11.9999C0.524902 5.66244 5.66244 0.524902 11.9999 0.524902C18.3374 0.524902 23.4749 5.66244 23.4749 11.9999C23.4749 18.3374 18.3374 23.4749 11.9999 23.4749C5.66244 23.4749 0.524902 18.3374 0.524902 11.9999Z" />
<path d="M10.4511 14.3463V14.1522C10.4549 13.4862 10.5124 12.9553 10.6237 12.5595C10.7388 12.1637 10.9059 11.844 11.1249 11.6004C11.3439 11.3568 11.6074 11.1361 11.9155 10.9382C12.1456 10.7859 12.3517 10.628 12.5335 10.4643C12.7154 10.3007 12.8602 10.1199 12.9678 9.92198C13.0755 9.72027 13.1293 9.49572 13.1293 9.24834C13.1293 8.98573 13.0681 8.75547 12.9456 8.55756C12.8231 8.35966 12.6579 8.20742 12.45 8.10086C12.2459 7.99429 12.0194 7.94101 11.7707 7.94101C11.5295 7.94101 11.3012 7.99619 11.0859 8.10657C10.8706 8.21313 10.6943 8.37298 10.5569 8.58611C10.4196 8.79543 10.3454 9.05614 10.3342 9.36822H8.0625C8.08106 8.60704 8.25923 7.97907 8.59702 7.4843C8.93481 6.98573 9.3821 6.61465 9.93889 6.37107C10.4957 6.12369 11.11 6 11.7819 6C12.5206 6 13.1739 6.12559 13.7418 6.37678C14.3097 6.62417 14.7552 6.98383 15.0781 7.45576C15.401 7.92769 15.5625 8.49667 15.5625 9.1627C15.5625 9.60799 15.4901 10.0038 15.3454 10.3501C15.2043 10.6927 15.0057 10.9971 14.7496 11.2636C14.4935 11.5262 14.1909 11.764 13.842 11.9772C13.5488 12.156 13.3075 12.3425 13.1182 12.5366C12.9326 12.7307 12.7934 12.9553 12.7006 13.2103C12.6115 13.4653 12.5651 13.7793 12.5614 14.1522V14.3463H10.4511ZM11.5536 18C11.1824 18 10.865 17.8668 10.6015 17.6004C10.3416 17.3302 10.2136 17.0067 10.2173 16.6299C10.2136 16.2569 10.3416 15.9372 10.6015 15.6708C10.865 15.4044 11.1824 15.2712 11.5536 15.2712C11.9062 15.2712 12.2162 15.4044 12.4834 15.6708C12.7507 15.9372 12.8862 16.2569 12.8899 16.6299C12.8862 16.8811 12.8212 17.1113 12.695 17.3206C12.5725 17.5262 12.4111 17.6917 12.2106 17.8173C12.0102 17.9391 11.7912 18 11.5536 18Z" />
</g>
<defs>
<clipPath id="clip0_14377_13330">
<rect width="24" height="24" fill="white"/>
</clipPath>
</defs>
</svg>
