<svg width="24" height="24" viewBox="0 0 24 24" fill="currentColor" xmlns="http://www.w3.org/2000/svg">
<path fill-rule="evenodd" clip-rule="evenodd" d="M9.86 2.97441C9.29348 2.97441 8.835 3.43289 8.835 3.99941V4.83441H15.69V3.99941C15.69 3.43289 15.2315 2.97441 14.665 2.97441H9.86ZM17.64 4.83441V3.99941C17.64 2.35594 16.3085 1.02441 14.665 1.02441H9.86C8.21652 1.02441 6.885 2.35594 6.885 3.99941V4.83441H1.5V6.78441H3.59673L4.88056 19.9789L4.88174 19.9888C5.07926 21.6602 6.60639 22.7844 8.25 22.7844H15.87C17.5168 22.7844 19.0411 21.6523 19.2383 19.9838L19.2399 19.9697L20.4093 6.78441H22.74V4.83441H17.64ZM18.4516 6.78441H5.55594L6.81927 19.7682C6.88635 20.2943 7.42787 20.8344 8.25 20.8344H15.87C16.6872 20.8344 17.231 20.2944 17.3003 19.7665L18.4516 6.78441ZM9.75 9.5249C10.2885 9.5249 10.725 9.96143 10.725 10.4999V17.2499C10.725 17.7884 10.2885 18.2249 9.75 18.2249C9.21152 18.2249 8.775 17.7884 8.775 17.2499V10.4999C8.775 9.96143 9.21152 9.5249 9.75 9.5249ZM14.25 9.5249C14.7885 9.5249 15.225 9.96143 15.225 10.4999V17.2499C15.225 17.7884 14.7885 18.2249 14.25 18.2249C13.7115 18.2249 13.275 17.7884 13.275 17.2499V10.4999C13.275 9.96143 13.7115 9.5249 14.25 9.5249Z" />
</svg>
