<svg width="24" height="24" viewBox="0 0 24 24" fill="currentColor" xmlns="http://www.w3.org/2000/svg">
<path d="M5.85 19.8745L4.87958 19.9689L4.88056 19.9789L4.88174 19.9889L5.85 19.8745ZM18.27 19.8695L19.2383 19.9839L19.2399 19.9698L19.2412 19.9556L18.27 19.8695ZM10.725 10.5C10.725 9.96152 10.2885 9.525 9.75 9.525C9.21152 9.525 8.775 9.96152 8.775 10.5H10.725ZM8.775 17.25C8.775 17.7885 9.21152 18.225 9.75 18.225C10.2885 18.225 10.725 17.7885 10.725 17.25H8.775ZM15.225 10.5C15.225 9.96152 14.7885 9.525 14.25 9.525C13.7115 9.525 13.275 9.96152 13.275 10.5H15.225ZM13.275 17.25C13.275 17.7885 13.7115 18.225 14.25 18.225C14.7885 18.225 15.225 17.7885 15.225 17.25H13.275ZM1.5 6.78451H22.74V4.83451H1.5V6.78451ZM8.835 5.04951V3.99951H6.885V5.04951H8.835ZM8.835 3.99951C8.835 3.43299 9.29348 2.97451 9.86 2.97451V1.02451C8.21652 1.02451 6.885 2.35603 6.885 3.99951H8.835ZM9.86 2.97451H14.665V1.02451H9.86V2.97451ZM14.665 2.97451C15.2315 2.97451 15.69 3.43299 15.69 3.99951H17.64C17.64 2.35603 16.3085 1.02451 14.665 1.02451V2.97451ZM15.69 3.99951V5.04951H17.64V3.99951H15.69ZM3.52958 6.09442L4.87958 19.9689L6.82042 19.7801L5.47042 5.90558L3.52958 6.09442ZM4.88174 19.9889C5.07926 21.6603 6.60639 22.7845 8.25 22.7845V20.8345C7.42361 20.8345 6.88074 20.2887 6.81826 19.7601L4.88174 19.9889ZM8.25 22.7845H15.87V20.8345H8.25V22.7845ZM15.87 22.7845C17.5168 22.7845 19.0411 21.6524 19.2383 19.9839L17.3017 19.7551C17.2389 20.2866 16.6932 20.8345 15.87 20.8345V22.7845ZM19.2412 19.9556L20.4712 6.08613L18.5288 5.91387L17.2988 19.7834L19.2412 19.9556ZM8.775 10.5V17.25H10.725V10.5H8.775ZM13.275 10.5V17.25H15.225V10.5H13.275Z" />
</svg>
