<svg width="24" height="24" viewBox="0 0 24 24" fill="currentColor" xmlns="http://www.w3.org/2000/svg">
<path fill-rule="evenodd" clip-rule="evenodd" d="M23.0879 20.1319C23.0879 21.9613 21.6049 23.4443 19.7755 23.4443L3.78451 23.4443C1.95511 23.4443 0.472095 21.9613 0.472095 20.1319L0.472095 14.4209L2.52808 14.4209L2.52808 20.1319C2.52808 20.8258 3.0906 21.3884 3.78451 21.3884L19.7755 21.3884C20.4694 21.3884 21.0319 20.8258 21.0319 20.1319L21.0319 14.4209L23.0879 14.4209L23.0879 20.1319Z" />
<path fill-rule="evenodd" clip-rule="evenodd" d="M10.7483 16.5928L10.7483 1.97246L12.8043 1.97246L12.8043 16.5928L10.7483 16.5928Z" />
<path fill-rule="evenodd" clip-rule="evenodd" d="M7.20941 10.6832L11.7783 15.2521L16.3471 10.6832L17.8009 12.137L11.7783 18.1597L5.75562 12.137L7.20941 10.6832Z" />
</svg>
