<svg width="24" height="24" viewBox="0 0 24 24" fill="currentColor" xmlns="http://www.w3.org/2000/svg">
<path fill-rule="evenodd" clip-rule="evenodd" d="M14.8602 3.33822C15.5025 2.69585 16.5451 2.69585 17.1874 3.33822L19.0941 5.24489C19.7915 5.94225 19.7915 7.07647 19.0941 7.77384L6.30202 20.5659C6.13441 20.7335 5.90708 20.8277 5.67004 20.8277H2.83296C2.33935 20.8277 1.93921 20.4276 1.93921 19.9339V16.8677C1.93921 16.6277 2.03575 16.3978 2.20709 16.2297L11.3742 7.23717L12.6259 8.51322L3.72671 17.2429V19.0402H5.29984L15.2896 9.05044L12.8866 6.662C12.5409 6.3183 12.5343 5.76091 12.8719 5.40919L14.8474 3.35127L14.8602 3.33822ZM16.5536 7.78648L17.8296 6.51047C17.8296 6.51017 17.8296 6.5098 17.8296 6.50936C17.8296 6.50893 17.8296 6.50856 17.8296 6.50826L16.026 4.70467L14.7697 6.0134L16.5536 7.78648ZM9.73132 19.1227H21.9042V20.9102H9.73132V19.1227Z" />
</svg>
