<svg width="24" height="24" viewBox="0 0 24 24" fill="currentColor" xmlns="http://www.w3.org/2000/svg">
<g clip-path="url(#clip0_14328_11653)">
<path fill-rule="evenodd" clip-rule="evenodd" d="M0.782994 21.287C2.00605 22.7479 5.2228 22.2324 9.03422 20.252C9.72319 20.4981 10.4544 20.6615 11.2172 20.7291C16.0431 21.1568 20.3021 17.5913 20.7299 12.7653C20.7963 12.0162 20.7665 11.2806 20.6506 10.571C23.3403 7.11797 24.455 3.98471 23.2171 2.50598C21.9701 1.0165 18.6509 1.58149 14.742 3.65857C14.1141 3.45194 13.4529 3.31349 12.7662 3.25262C7.94019 2.82487 3.6812 6.39035 3.25345 11.2163C3.19139 11.9166 3.2134 12.6049 3.31113 13.2713C0.649171 16.7048 -0.449055 19.8153 0.782994 21.287ZM5.65847 18.071C4.20465 18.6716 3.13558 18.7888 2.71948 18.2918C2.26544 17.7495 2.74932 16.6848 3.86758 15.3056C4.07859 15.8216 4.33765 16.3142 4.63966 16.7774C5.44765 16.7235 6.69659 16.6334 8.42197 15.8167C8.64262 15.7123 8.9039 16.0611 8.71842 16.2198C7.53967 17.2285 6.60522 17.8041 5.65847 18.071ZM19.9066 3.90334C20.3333 4.41299 20.0034 5.4849 19.1068 6.85919C18.4522 5.95246 17.6269 5.1725 16.673 4.56968C18.2748 3.67183 19.4472 3.35455 19.9066 3.90334Z" />
</g>
<defs>
<clipPath id="clip0_14328_11653">
<rect width="24" height="24" fill="white"/>
</clipPath>
</defs>
</svg>
