<svg width="24" height="24" viewBox="0 0 24 24" fill="currentColor" xmlns="http://www.w3.org/2000/svg">
<path fill-rule="evenodd" clip-rule="evenodd" d="M5.0001 4.90004C4.39258 4.90004 3.9001 5.39253 3.9001 6.00004V19C3.9001 19.6076 4.39258 20.1 5.0001 20.1H18.0001C18.6076 20.1 19.1001 19.6076 19.1001 19V11.9688H20.9001V19C20.9001 20.6017 19.6017 21.9 18.0001 21.9H5.0001C3.39847 21.9 2.1001 20.6017 2.1001 19V6.00004C2.1001 4.39842 3.39847 3.10004 5.0001 3.10004H12.5626V4.90004H5.0001Z" />
<path fill-rule="evenodd" clip-rule="evenodd" d="M22.0322 1.43436L22.5751 1.97718C23.6685 3.07065 23.6685 4.84351 22.5751 5.93697L13.1386 15.3735C12.7956 15.7165 12.3694 15.9645 11.9017 16.0932L9.62594 16.7196C8.20467 17.1108 6.89865 15.8047 7.28985 14.3835L7.91624 12.1077C8.04496 11.64 8.29297 11.2138 8.63595 10.8709L18.0724 1.43436C19.1659 0.340891 20.9388 0.34089 22.0322 1.43436ZM11.424 14.3577C11.5911 14.3117 11.7433 14.2232 11.8658 14.1007L21.3023 4.66418C21.6928 4.27366 21.6928 3.64049 21.3023 3.24997L20.7595 2.70715C20.3689 2.31663 19.7358 2.31663 19.3452 2.70715L9.90874 12.1436C9.78625 12.2661 9.69768 12.4184 9.6517 12.5854L9.02531 14.8612C9.00472 14.936 9.07346 15.0047 9.14826 14.9841L11.424 14.3577Z" />
</svg>
