<svg width="24" height="24" viewBox="0 0 24 24" fill="currentColor" xmlns="http://www.w3.org/2000/svg">
<path fill-rule="evenodd" clip-rule="evenodd" d="M14.9074 4.46453C16.8176 2.55435 19.9146 2.55435 21.8247 4.46453C23.7349 6.37471 23.7349 9.47172 21.8247 11.3819L12.7934 20.4132C10.1039 23.1027 5.7433 23.1027 3.05377 20.4132C0.36424 17.7237 0.364237 13.3631 3.05377 10.6736L11.3103 2.41699L12.5831 3.68978L4.32656 11.9464C2.33997 13.9329 2.33997 17.1538 4.32656 19.1404C6.31315 21.127 9.53405 21.127 11.5206 19.1404L20.552 10.1091C21.7592 8.90187 21.7592 6.94456 20.552 5.73732C19.3447 4.53009 17.3874 4.53009 16.1802 5.73732L6.86662 15.0509C6.43874 15.4788 6.43874 16.1725 6.86662 16.6004C7.2945 17.0283 7.98823 17.0282 8.41612 16.6004L16.9549 8.06157L18.2277 9.33436L9.68891 17.8732C8.55808 19.004 6.72465 19.004 5.59383 17.8732C4.463 16.7423 4.463 14.9089 5.59383 13.7781L14.9074 4.46453Z" />
</svg>
