<svg width="24" height="24" viewBox="0 0 24 24" fill="currentColor" xmlns="http://www.w3.org/2000/svg">
<path fill-rule="evenodd" clip-rule="evenodd" d="M12 4.35987C13.1929 3.20016 14.6429 2.1001 16.736 2.1001C20.2077 2.1001 22.9001 5.09462 22.9001 8.43197C22.9001 10.0883 22.2476 11.7195 21.1042 12.8988L12.6461 21.6264C12.4766 21.8014 12.2434 21.9001 11.9998 21.9001C11.7563 21.9001 11.5231 21.8014 11.3535 21.6264L2.89548 12.8988C1.74284 11.7095 1.1001 10.1022 1.1001 8.43197C1.1001 5.09093 3.78839 2.10063 7.26371 2.10063C9.36075 2.10063 10.8068 3.19901 12 4.35987ZM16.736 3.9001C15.0902 3.9001 13.9947 4.87276 12.6461 6.26429C12.4766 6.43921 12.2434 6.53795 11.9998 6.53795C11.7563 6.53795 11.5231 6.43921 11.3535 6.26429C10.0023 4.87002 8.91341 3.90063 7.26371 3.90063C4.86553 3.90063 2.9001 5.99994 2.9001 8.43197C2.9001 9.6427 3.36647 10.7984 4.18807 11.6462L11.9998 19.7069L19.8116 11.6462C20.6238 10.8085 21.1001 9.62875 21.1001 8.43197C21.1001 6.00364 19.1306 3.9001 16.736 3.9001Z" />
</svg>
