<svg width="24" height="24" viewBox="0 0 24 24" fill="currentColor" xmlns="http://www.w3.org/2000/svg">
<path fill-rule="evenodd" clip-rule="evenodd" d="M14.9073 4.46456C16.8175 2.55439 19.9145 2.55439 21.8247 4.46456C23.7349 6.37474 23.7349 9.47175 21.8247 11.3819L12.7934 20.4133C10.1038 23.1028 5.74323 23.1028 3.0537 20.4133C0.364166 17.7237 0.364164 13.3631 3.0537 10.6736L11.3103 2.41703L12.5831 3.68982L4.32649 11.9464C2.3399 13.933 2.3399 17.1539 4.32649 19.1405C6.31307 21.127 9.53397 21.127 11.5206 19.1405L20.5519 10.1091C21.7591 8.9019 21.7591 6.94459 20.5519 5.73736C19.3446 4.53012 17.3873 4.53012 16.1801 5.73736L6.86655 15.0509C6.43867 15.4788 6.43867 16.1725 6.86655 16.6004C7.29443 17.0283 7.98816 17.0283 8.41604 16.6004L16.9548 8.0616L18.2276 9.33439L9.68883 17.8732C8.55801 19.004 6.72458 19.004 5.59376 17.8732C4.46293 16.7424 4.46293 14.9089 5.59376 13.7781L14.9073 4.46456Z" />
</svg>
