<svg width="24" height="24" viewBox="0 0 24 24" fill="currentColor" xmlns="http://www.w3.org/2000/svg">
<path fill-rule="evenodd" clip-rule="evenodd" d="M4.0001 3.9001C3.39258 3.9001 2.9001 4.39258 2.9001 5.0001V19.0001C2.9001 19.6076 3.39258 20.1001 4.0001 20.1001H20.0001C20.6076 20.1001 21.1001 19.6076 21.1001 19.0001V8.5001C21.1001 7.89258 20.6076 7.4001 20.0001 7.4001H12.42C11.5734 7.4001 10.7691 7.03017 10.2181 6.38739L8.41541 4.28423C8.20643 4.04042 7.90135 3.9001 7.58023 3.9001H4.0001ZM1.1001 5.0001C1.1001 3.39847 2.39847 2.1001 4.0001 2.1001H7.58023C8.42681 2.1001 9.23112 2.47003 9.78207 3.1128L11.5848 5.21597C11.7938 5.45978 12.0988 5.6001 12.42 5.6001H20.0001C21.6017 5.6001 22.9001 6.89847 22.9001 8.5001V19.0001C22.9001 20.6017 21.6017 21.9001 20.0001 21.9001H4.0001C2.39847 21.9001 1.1001 20.6017 1.1001 19.0001V5.0001Z" />
</svg>
