<svg width="24" height="24" viewBox="0 0 24 24" fill="currentColor" xmlns="http://www.w3.org/2000/svg">
<path d="M22.2504 1.15015C22.2504 1.15015 22.223 1.15456 22.2106 1.15988C16.5323 2.60085 10.485 4.60763 6.01277 8.57599C4.11275 10.2652 2.60147 12.4656 2.44454 15.0778C2.19908 19.1637 5.29856 22.6747 9.36681 22.9191C11.0416 23.0197 12.7214 22.5357 14.0898 21.5571C15.4048 20.6148 16.3007 19.2138 17.0306 17.7635C18.1585 15.5157 21.294 9.38491 21.294 9.38491C21.4031 9.17628 21.1971 8.93962 20.9776 9.02645C19.9384 9.24588 17.608 9.96057 16.7166 10.4829C16.5946 10.5543 16.4478 10.4364 16.4891 10.3025C16.8848 8.9897 17.7885 7.71044 18.5005 6.60759C19.6886 4.76351 21.027 3.08 22.5374 1.49774C22.5856 1.44911 22.6343 1.39142 22.6385 1.32197C22.6484 1.15587 22.421 1.12403 22.2503 1.15317L22.2504 1.15015Z" />
</svg>
