<svg width="24" height="24" viewBox="0 0 24 24" fill="currentColor" xmlns="http://www.w3.org/2000/svg">
<path d="M11.0071 1.59692C11.4503 0.801028 12.5497 0.801026 12.9929 1.59692L15.8314 6.69371C15.9938 6.98526 16.2659 7.192 16.5812 7.2634L22.0932 8.51172C22.9539 8.70666 23.2936 9.80018 22.7068 10.487L18.9491 14.8853C18.7342 15.1369 18.6302 15.4714 18.6627 15.8071L19.2309 21.6754C19.3196 22.5918 18.4302 23.2676 17.6243 22.8962L12.4634 20.5177C12.1682 20.3816 11.8318 20.3816 11.5366 20.5177L6.37575 22.8962C5.56985 23.2676 4.68042 22.5918 4.76914 21.6754L5.33725 15.8071C5.36975 15.4714 5.26582 15.1369 5.05087 14.8853L1.29316 10.487C0.70637 9.80018 1.0461 8.70666 1.90683 8.51172L7.41882 7.2634C7.73413 7.192 8.0062 6.98526 8.16857 6.69371L11.0071 1.59692Z" />
</svg>
