<svg width="24" height="24" viewBox="0 0 24 24" fill="currentColor" xmlns="http://www.w3.org/2000/svg">
<g clip-path="url(#clip0_14377_13329)">
<path fill-rule="evenodd" clip-rule="evenodd" d="M11.9999 2.4749C6.73939 2.4749 2.4749 6.73939 2.4749 11.9999C2.4749 17.2604 6.73939 21.5249 11.9999 21.5249C17.2604 21.5249 21.5249 17.2604 21.5249 11.9999C21.5249 6.73939 17.2604 2.4749 11.9999 2.4749ZM0.524902 11.9999C0.524902 5.66244 5.66244 0.524902 11.9999 0.524902C18.3374 0.524902 23.4749 5.66244 23.4749 11.9999C23.4749 18.3374 18.3374 23.4749 11.9999 23.4749C5.66244 23.4749 0.524902 18.3374 0.524902 11.9999Z" />
<path fill-rule="evenodd" clip-rule="evenodd" d="M12 18.375C11.3787 18.375 10.875 17.8713 10.875 17.25L10.875 11.25C10.875 10.6287 11.3787 10.125 12 10.125C12.6213 10.125 13.125 10.6287 13.125 11.25L13.125 17.25C13.125 17.8713 12.6213 18.375 12 18.375ZM12 8.625C11.3787 8.625 10.875 8.12132 10.875 7.5L10.875 6.75C10.875 6.12868 11.3787 5.625 12 5.625C12.6213 5.625 13.125 6.12868 13.125 6.75L13.125 7.5C13.125 8.12132 12.6213 8.625 12 8.625Z" />
</g>
<defs>
<clipPath id="clip0_14377_13329">
<rect width="24" height="24" fill="white"/>
</clipPath>
</defs>
</svg>
