<svg width="24" height="24" viewBox="0 0 24 24" fill="currentColor" xmlns="http://www.w3.org/2000/svg">
<path fill-rule="evenodd" clip-rule="evenodd" d="M21.2501 7H7.2501V5H21.2501V7Z" />
<path fill-rule="evenodd" clip-rule="evenodd" d="M5.7501 6C5.7501 6.82843 5.07853 7.5 4.2501 7.5C3.42167 7.5 2.75 6.82843 2.75 6C2.75 5.17157 3.42157 4.5 4.25 4.5C5.07843 4.5 5.7501 5.17157 5.7501 6Z" />
<path fill-rule="evenodd" clip-rule="evenodd" d="M21.2501 13H7.2501V11H21.2501V13Z" />
<path fill-rule="evenodd" clip-rule="evenodd" d="M5.7501 12C5.7501 12.8284 5.07853 13.5 4.2501 13.5C3.42167 13.5 2.75 12.8284 2.75 12C2.75 11.1716 3.42157 10.5 4.25 10.5C5.07843 10.5 5.7501 11.1716 5.7501 12Z" />
<path fill-rule="evenodd" clip-rule="evenodd" d="M21.2501 19H7.2501V17H21.2501V19Z" />
<path fill-rule="evenodd" clip-rule="evenodd" d="M5.7501 18C5.7501 18.8284 5.07853 19.5 4.2501 19.5C3.42167 19.5 2.75 18.8284 2.75 18C2.75 17.1716 3.42157 16.5 4.25 16.5C5.07843 16.5 5.7501 17.1716 5.7501 18Z" />
</svg>
