<svg width="102" height="26" viewBox="0 0 102 26" fill="currentColor" xmlns="http://www.w3.org/2000/svg">
<g clip-path="url(#clip0_14412_15133)">
<path d="M14.1297 6.57476C13.284 6.02688 12.2565 5.74805 11.0618 5.74805C10.2506 5.74805 9.53285 5.86056 8.90355 6.09047C8.27426 6.32039 7.71871 6.61879 7.23199 6.98568C6.74526 7.35256 6.30771 7.76347 5.91931 8.22331L6.05697 6.0758H3.51521L0 26.0002H2.763L4.22808 17.8015C4.44932 18.2613 4.76888 18.6722 5.18186 19.0391C5.59483 19.406 6.0963 19.7044 6.68627 19.9343C7.27623 20.1642 7.92028 20.2767 8.62332 20.2767C9.7295 20.2767 10.7521 20.0713 11.6911 19.6555C12.6302 19.2446 13.4561 18.6673 14.1641 17.9238C14.872 17.1802 15.4423 16.3095 15.8651 15.3115C16.2879 14.3136 16.519 13.2227 16.5583 12.0487C16.6321 10.8551 16.4551 9.78379 16.0323 8.82989C15.6095 7.87599 14.9704 7.12265 14.1247 6.57476H14.1297ZM12.9694 15.2284C12.5073 16.0649 11.9025 16.7155 11.1602 17.1802C10.4178 17.6449 9.57218 17.8797 8.62823 17.8797C7.87111 17.8797 7.21232 17.7036 6.65185 17.3563C6.09139 17.009 5.66366 16.5247 5.37851 15.9132C5.09336 15.2969 4.97537 14.568 5.03437 13.7266C5.06878 12.6455 5.31952 11.6916 5.78166 10.8649C6.24379 10.0382 6.85342 9.37777 7.62038 8.8837C8.38242 8.38963 9.23787 8.14014 10.1769 8.14014C10.9488 8.14014 11.6076 8.32603 12.1385 8.68803C12.6744 9.05491 13.0825 9.55388 13.3676 10.1898C13.6528 10.8209 13.7757 11.5497 13.7413 12.3765C13.6872 13.438 13.4266 14.3919 12.9694 15.2235V15.2284Z" />
<path d="M20.2112 0C19.6753 0 19.2377 0.16143 18.8985 0.479398C18.5593 0.802258 18.3872 1.20828 18.3872 1.70235C18.3872 2.19643 18.5593 2.63669 18.8985 2.96933C19.2377 3.29708 19.6753 3.46341 20.2112 3.46341C20.7471 3.46341 21.16 3.29708 21.5091 2.96933C21.8582 2.64158 22.0352 2.21599 22.0352 1.70235C22.0352 1.18871 21.8582 0.797366 21.5091 0.479398C21.16 0.156538 20.7274 0 20.2112 0Z" />
<path d="M21.5926 6.08057H18.8296V19.9489H21.5926V6.08057Z" />
<path d="M28.8098 8.66845C29.4342 8.30157 30.1176 8.12057 30.855 8.12057C31.7597 8.12057 32.5364 8.3407 33.1903 8.78096C33.8442 9.22123 34.2621 9.83759 34.4489 10.6252H37.325C37.0103 9.13807 36.2876 7.95425 35.152 7.07372C34.0163 6.19319 32.5954 5.75293 30.8796 5.75293C29.5522 5.75293 28.3575 6.06111 27.3005 6.67259C26.2386 7.28896 25.4175 8.14014 24.8276 9.23101C24.2376 10.3219 23.9426 11.6035 23.9426 13.0711C23.9426 14.5386 24.2376 15.7127 24.8276 16.8133C25.4175 17.914 26.2435 18.7652 27.3005 19.3717C28.3624 19.9783 29.5522 20.2816 30.8796 20.2816C32.5758 20.2816 33.9966 19.8316 35.1372 18.9315C36.2778 18.0314 37.0103 16.8574 37.3201 15.4094H34.444C34.3162 15.9426 34.0851 16.3975 33.7508 16.7693C33.4214 17.146 32.9986 17.4346 32.4922 17.6351C31.9858 17.8357 31.4352 17.9384 30.8452 17.9384C30.2946 17.9384 29.7636 17.8259 29.2572 17.6058C28.7508 17.3857 28.3133 17.0726 27.9446 16.6715C27.5758 16.2703 27.2858 15.7567 27.0744 15.1305C26.863 14.5093 26.7548 13.8 26.7548 13.0124C26.7548 11.9313 26.9367 11.0263 27.3054 10.3023C27.6742 9.57833 28.1707 9.03045 28.8 8.66356L28.8098 8.66845Z" />
<path d="M50.9581 6.08076H47.6396L42.2217 11.9069V0.137207H39.4587V19.9491H42.2217V12.8461L48.2246 19.9491H51.7054L44.9946 12.4206L50.9581 6.08076Z" />
<path d="M57.1234 2.5879H54.7193L54.3604 6.08066H51.9563V8.38959H54.3604V15.5414C54.3604 16.6421 54.5374 17.5128 54.8865 18.1537C55.2355 18.7945 55.7321 19.2543 56.381 19.5283C57.03 19.8022 57.792 19.9392 58.677 19.9392H60.9434V17.6009H59.3407C58.5295 17.6009 57.9592 17.459 57.6249 17.1753C57.2955 16.8916 57.1283 16.3535 57.1283 15.5659V8.3847H61.0565V6.07576H57.1283V2.58301L57.1234 2.5879Z" />
<path d="M72.5804 6.65792C71.5479 6.05134 70.368 5.74805 69.0406 5.74805C67.7132 5.74805 66.5529 6.05134 65.5008 6.65792C64.4487 7.26451 63.6227 8.11079 63.0279 9.20167C62.4281 10.2925 62.1282 11.5742 62.1282 13.0417C62.1282 14.5093 62.4232 15.7322 63.0131 16.8231C63.6031 17.914 64.4241 18.7603 65.4713 19.3669C66.5234 19.9734 67.7132 20.2767 69.0357 20.2767C70.3582 20.2767 71.5184 19.9734 72.5607 19.3669C73.603 18.7603 74.4289 17.914 75.0336 16.8231C75.6433 15.7322 75.9481 14.4604 75.9481 13.0124C75.9481 11.5644 75.6433 10.273 75.0336 9.18699C74.424 8.1059 73.603 7.25962 72.5705 6.65792H72.5804ZM72.5558 15.7078C72.1674 16.4416 71.6659 16.9894 71.0465 17.3563C70.427 17.7232 69.7535 17.9042 69.016 17.9042C68.2786 17.9042 67.605 17.7232 66.9954 17.3563C66.3858 16.9894 65.8941 16.4416 65.5156 15.7078C65.137 14.974 64.9502 14.0739 64.9502 13.0124C64.9502 11.9509 65.137 11.0263 65.5156 10.3023C65.8941 9.57834 66.3956 9.03045 67.02 8.66357C67.6443 8.29668 68.3277 8.11569 69.0652 8.11569C69.8026 8.11569 70.4762 8.30157 71.0858 8.66357C71.6954 9.03045 72.1871 9.57834 72.5656 10.3023C72.9442 11.0263 73.131 11.9313 73.131 13.0124C73.131 14.0935 72.9393 14.974 72.5509 15.7078H72.5558Z" />
<path d="M86.4053 12.396C85.6334 12.1123 84.7534 11.8775 83.7799 11.6965C83.0965 11.5693 82.5262 11.4128 82.0641 11.2269C81.602 11.0459 81.248 10.8257 80.9972 10.5665C80.7465 10.3121 80.6236 10.0186 80.6236 9.68594C80.6236 9.19187 80.835 8.78095 81.2578 8.46299C81.6806 8.14013 82.2903 7.98359 83.0818 7.98359C83.8733 7.98359 84.5321 8.15969 85.0041 8.50701C85.4761 8.85433 85.7563 9.34351 85.8448 9.96477H88.5291C88.3423 8.60974 87.7818 7.56778 86.8428 6.8438C85.9038 6.11981 84.6599 5.75781 83.1113 5.75781C82.0444 5.75781 81.1103 5.93881 80.3188 6.29591C79.5272 6.65301 78.9225 7.14709 78.5096 7.78302C78.0966 8.41407 77.8852 9.12827 77.8852 9.91586C77.8852 10.5763 78.0228 11.1241 78.2982 11.5644C78.5735 12.0047 78.9471 12.3764 79.4191 12.6797C79.8911 12.983 80.4269 13.2276 81.0366 13.4086C81.6462 13.5945 82.2509 13.7461 82.8605 13.8782C83.5587 13.9907 84.1585 14.1277 84.6599 14.2891C85.1614 14.4506 85.5301 14.6707 85.7809 14.9349C86.0316 15.199 86.1545 15.5904 86.1545 16.104C86.1545 16.4513 86.0562 16.7791 85.8645 17.0824C85.6727 17.3857 85.3777 17.6254 84.9795 17.7966C84.5813 17.9727 84.0896 18.0558 83.4997 18.0558C82.836 18.0558 82.2706 17.9482 81.7986 17.7281C81.3266 17.508 80.9579 17.2144 80.6924 16.8476C80.4269 16.4807 80.245 16.0795 80.1516 15.6393H77.3591C77.4673 16.5736 77.777 17.3857 78.2834 18.0754C78.7898 18.7652 79.483 19.3032 80.3581 19.6995C81.2332 20.0957 82.2804 20.2914 83.4948 20.2914C84.6009 20.2914 85.5646 20.1055 86.3856 19.7435C87.2066 19.3766 87.8408 18.8679 88.2931 18.2173C88.7454 17.5667 88.9716 16.7986 88.9716 15.9181C88.9716 14.93 88.7356 14.1668 88.2686 13.6336C87.7966 13.1004 87.1771 12.6944 86.4003 12.4107L86.4053 12.396Z" />
<path d="M101.297 13.619C100.825 13.0858 100.205 12.6797 99.4287 12.396C98.6568 12.1123 97.7768 11.8775 96.8034 11.6965C96.12 11.5693 95.5497 11.4128 95.0875 11.2269C94.6254 11.0459 94.2714 10.8257 94.0207 10.5665C93.77 10.3121 93.647 10.0186 93.647 9.68594C93.647 9.19187 93.8584 8.78095 94.2813 8.46299C94.7041 8.14013 95.3137 7.98359 96.1052 7.98359C96.8968 7.98359 97.5556 8.15969 98.0275 8.50701C98.4995 8.85433 98.7797 9.34351 98.8682 9.96477H101.553C101.366 8.60974 100.805 7.56778 99.8663 6.8438C98.9272 6.11981 97.6834 5.75781 96.1347 5.75781C95.0679 5.75781 94.1338 5.93881 93.3422 6.29591C92.5507 6.65301 91.946 7.14709 91.533 7.78302C91.12 8.41407 90.9086 9.12827 90.9086 9.91586C90.9086 10.5763 91.0463 11.1241 91.3216 11.5644C91.5969 12.0047 91.9706 12.3764 92.4425 12.6797C92.9145 12.983 93.4504 13.2276 94.06 13.4086C94.6697 13.5945 95.2744 13.7461 95.884 13.8782C96.5821 13.9907 97.1819 14.1277 97.6834 14.2891C98.1849 14.4506 98.5536 14.6707 98.8043 14.9349C99.0551 15.199 99.178 15.5904 99.178 16.104C99.178 16.4513 99.0796 16.7791 98.8879 17.0824C98.6962 17.3857 98.4012 17.6254 98.0029 17.7966C97.6047 17.9727 97.1131 18.0558 96.5231 18.0558C95.8594 18.0558 95.294 17.9482 94.8221 17.7281C94.3501 17.508 93.9814 17.2144 93.7159 16.8476C93.4504 16.4807 93.2685 16.0795 93.1751 15.6393H90.3826C90.4907 16.5736 90.8005 17.3857 91.3068 18.0754C91.8132 18.7652 92.5064 19.3032 93.3816 19.6995C94.2567 20.0957 95.3039 20.2914 96.5182 20.2914C97.6244 20.2914 98.588 20.1055 99.409 19.7435C100.23 19.3766 100.864 18.8679 101.317 18.2173C101.769 17.5667 101.995 16.7986 101.995 15.9181C101.995 14.93 101.759 14.1668 101.292 13.6336L101.297 13.619Z" />
</g>
<defs>
<clipPath id="clip0_14412_15133">
<rect width="102" height="26" fill="white"/>
</clipPath>
</defs>
</svg>
