<svg width="24" height="24" viewBox="0 0 24 24" fill="currentColor" xmlns="http://www.w3.org/2000/svg">
<path fill-rule="evenodd" clip-rule="evenodd" d="M11.9996 2.92461C8.64448 2.92461 5.92461 5.64448 5.92461 8.99961C5.92461 12.3547 8.64448 15.0746 11.9996 15.0746C15.3547 15.0746 18.0746 12.3547 18.0746 8.99961C18.0746 5.64448 15.3547 2.92461 11.9996 2.92461ZM3.97461 8.99961C3.97461 4.56752 7.56752 0.974609 11.9996 0.974609C16.4317 0.974609 20.0246 4.56752 20.0246 8.99961C20.0246 13.4317 16.4317 17.0246 11.9996 17.0246C7.56752 17.0246 3.97461 13.4317 3.97461 8.99961Z" />
<path fill-rule="evenodd" clip-rule="evenodd" d="M8.4749 20.7995V14.25H6.5249V21.9768C6.5249 22.9617 7.59403 23.5747 8.44401 23.0771L11.9999 20.9956L15.5558 23.0771C16.4058 23.5747 17.4749 22.9617 17.4749 21.9768V14.25H15.5249V20.7995L12.644 19.1131C12.2462 18.8803 11.7536 18.8803 11.3558 19.1131L8.4749 20.7995Z" />
</svg>
