<svg width="24" height="24" viewBox="0 0 24 24" fill="currentColor" xmlns="http://www.w3.org/2000/svg">
<path fill-rule="evenodd" clip-rule="evenodd" d="M12.3118 2.9001C9.36685 2.9001 6.8619 5.50368 6.8619 8.86616V11.675C6.8619 12.6683 6.56084 13.378 6.1589 14.0234C6.00524 14.2701 5.82912 14.519 5.66016 14.7578C5.40938 15.1122 5.16898 15.454 4.9257 15.8725C4.80316 16.0832 5.05863 16.0435 5.24524 16.0595C5.48454 16.0801 5.73073 16.0806 5.96186 16.0806H18.6618C18.7816 16.0806 18.9189 16.0852 19.0468 16.0895C19.06 16.09 19.073 16.0904 19.086 16.0908C19.2321 16.0957 19.3764 16.1001 19.5193 16.1001C19.7233 16.1001 19.8981 16.1558 19.748 15.9492C19.5627 15.6942 19.3861 15.4582 19.2209 15.2375C18.8263 14.7103 18.4973 14.2707 18.2731 13.8697C17.8979 13.1984 17.7618 12.5706 17.7618 11.675V8.86616C17.7618 7.21846 17.1527 5.73786 16.1806 4.66519C15.1832 3.56474 13.8124 2.9001 12.3118 2.9001ZM5.0619 8.86616C5.0619 4.6446 8.24288 1.1001 12.3118 1.1001C14.3647 1.1001 16.2066 2.01352 17.5143 3.45642C18.7868 4.86053 19.5618 6.77212 19.5618 8.86616V11.675C19.5618 12.3398 19.6525 12.6483 19.8443 12.9914C20.0081 13.2845 20.2278 13.5777 20.5677 14.0312C20.7444 14.267 20.9535 14.5461 21.2042 14.8911C21.5667 15.39 21.8763 15.9789 21.784 16.5887C21.6716 17.3309 21.0706 17.6445 20.6825 17.7632C20.2914 17.8828 19.8514 17.9001 19.5193 17.9001C19.3433 17.9001 19.1722 17.8947 19.026 17.8898L18.9938 17.8888C18.8559 17.8842 18.7496 17.8806 18.6618 17.8806H5.95066C5.72873 17.8806 5.41319 17.8806 5.09099 17.8529C4.77364 17.8256 4.37731 17.7665 4.0188 17.6123C3.654 17.4554 3.20251 17.14 3.04942 16.5474C2.906 15.9922 3.09362 15.4424 3.36956 14.9678C3.61592 14.544 3.86023 14.1875 4.07764 13.8783C4.12123 13.8164 4.16298 13.7573 4.20309 13.7006C4.36974 13.4648 4.50794 13.2694 4.63102 13.0717C4.90942 12.6248 5.0619 12.2422 5.0619 11.675V8.86616Z" />
<path fill-rule="evenodd" clip-rule="evenodd" d="M10.8004 19.0001C10.8004 19.4306 11.3189 20.1001 12.4004 20.1001C13.4818 20.1001 14.0004 19.4306 14.0004 19.0001H15.8004C15.8004 20.7788 14.0803 21.9001 12.4004 21.9001C10.7204 21.9001 9.00037 20.7788 9.00037 19.0001H10.8004Z" />
</svg>
