<svg width="24" height="24" viewBox="0 0 24 24" fill="currentColor" xmlns="http://www.w3.org/2000/svg">
<path fill-rule="evenodd" clip-rule="evenodd" d="M5.0001 5.28579C4.39258 5.28579 3.9001 5.77827 3.9001 6.38579V19.3858C3.9001 19.9933 4.39258 20.4858 5.0001 20.4858H18.0001C18.6076 20.4858 19.1001 19.9933 19.1001 19.3858V12.3545H20.9001V19.3858C20.9001 20.9874 19.6017 22.2858 18.0001 22.2858H5.0001C3.39847 22.2858 2.1001 20.9874 2.1001 19.3858V6.38579C2.1001 4.78416 3.39847 3.48579 5.0001 3.48579H12.5626V5.28579H5.0001Z" />
<path fill-rule="evenodd" clip-rule="evenodd" d="M22.0322 1.8201L22.5751 2.36292C23.6685 3.45639 23.6685 5.22925 22.5751 6.32272L13.1386 15.7592C12.7956 16.1022 12.3694 16.3502 11.9017 16.4789L9.62594 17.1053C8.20467 17.4965 6.89865 16.1905 7.28985 14.7692L7.91624 12.4934C8.04496 12.0258 8.29297 11.5996 8.63595 11.2566L18.0724 1.8201C19.1659 0.726633 20.9388 0.726633 22.0322 1.8201ZM11.424 14.7435C11.5911 14.6975 11.7433 14.6089 11.8658 14.4864L21.3023 5.04992C21.6928 4.6594 21.6928 4.02624 21.3023 3.63571L20.7595 3.09289C20.3689 2.70237 19.7358 2.70237 19.3452 3.09289L9.90874 12.5294C9.78625 12.6519 9.69768 12.8041 9.6517 12.9711L9.02531 15.2469C9.00472 15.3217 9.07346 15.3904 9.14826 15.3699L11.424 14.7435Z" />
</svg>
