<svg width="24" height="24" viewBox="0 0 24 24" fill="currentColor" xmlns="http://www.w3.org/2000/svg">
<path fill-rule="evenodd" clip-rule="evenodd" d="M12.9154 1.06675C13.2704 0.924897 13.676 1.01357 13.9395 1.29062L21.3049 9.03629C21.4701 9.21003 21.5623 9.44061 21.5623 9.68036V20.2683C21.5623 21.7828 20.3268 23.0004 18.8176 23.0004H5.18239C3.67323 23.0004 2.43774 21.7828 2.43774 20.2683V3.73211C2.43774 2.21761 3.67323 1.00003 5.18239 1.00003H10.9743V2.86935H5.18239C4.69332 2.86935 4.30706 3.26226 4.30706 3.73211V20.2683C4.30706 20.7382 4.69332 21.1311 5.18239 21.1311H18.8176C19.3067 21.1311 19.693 20.7382 19.693 20.2683V10.615H13.2622C12.746 10.615 12.3275 10.1966 12.3275 9.68036V1.93469C12.3275 1.55237 12.5604 1.2086 12.9154 1.06675ZM18.4491 8.7457H14.1968V4.27395L18.4491 8.7457ZM6.17838 12.9828H17.701V14.8521H6.17838V12.9828ZM6.17838 16.8173H17.701V18.6866H6.17838V16.8173Z" />
</svg>
