<svg width="24" height="24" viewBox="0 0 24 24" fill="currentColor" xmlns="http://www.w3.org/2000/svg">
<path fill-rule="evenodd" clip-rule="evenodd" d="M12.8753 1.54527C13.2148 1.40963 13.6026 1.49442 13.8545 1.75935L20.8976 9.16601C21.0556 9.33215 21.1437 9.55264 21.1437 9.78189V19.9065C21.1437 21.3547 19.9623 22.519 18.5192 22.519H5.48072C4.03761 22.519 2.8562 21.3547 2.8562 19.9065V4.09398C2.8562 2.64576 4.03761 1.48148 5.48072 1.48148H11.0192V3.26898H5.48072C5.01306 3.26898 4.6437 3.64469 4.6437 4.09398V19.9065C4.6437 20.3558 5.01306 20.7315 5.48072 20.7315H18.5192C18.9868 20.7315 19.3562 20.3558 19.3562 19.9065V10.6756H13.2069C12.7133 10.6756 12.3131 10.2755 12.3131 9.78189V2.37523C12.3131 2.00964 12.5358 1.68092 12.8753 1.54527ZM18.1668 8.88814H14.1006V4.6121L18.1668 8.88814ZM6.43312 12.9398H17.4514V14.7273H6.43312V12.9398ZM6.43312 16.6065H17.4514V18.394H6.43312V16.6065Z" />
</svg>
