<svg width="24" height="24" viewBox="0 0 24 24" fill="currentColor" xmlns="http://www.w3.org/2000/svg">
<path fill-rule="evenodd" clip-rule="evenodd" d="M11.4115 2.9001C8.46646 2.9001 5.96151 5.50368 5.96151 8.86616V11.675C5.96151 12.6683 5.66045 13.378 5.25851 14.0234C5.10485 14.2701 4.92873 14.519 4.75977 14.7578C4.7226 14.8103 4.68579 14.8623 4.64963 14.9138C4.44181 15.2093 4.23254 15.516 4.0253 15.8725C3.99654 15.9219 3.97438 15.9643 3.9573 16.0002C4.05375 16.0245 4.18261 16.0456 4.34485 16.0595C4.58415 16.0801 4.83034 16.0806 5.06147 16.0806H17.7614C17.8813 16.0806 18.0185 16.0852 18.1464 16.0895C18.1596 16.09 18.1726 16.0904 18.1856 16.0908C18.3317 16.0957 18.476 16.1001 18.6189 16.1001C18.7429 16.1001 18.8515 16.0965 18.9447 16.0898C18.917 16.0473 18.8848 16.0004 18.8476 15.9492C18.6623 15.6942 18.4857 15.4582 18.3205 15.2375C17.926 14.7103 17.5969 14.2707 17.3727 13.8697C16.9975 13.1984 16.8614 12.5706 16.8614 11.675V8.86616C16.8614 7.21846 16.2523 5.73786 15.2802 4.66519C14.2828 3.56474 12.9121 2.9001 11.4115 2.9001ZM19.102 16.3979L19.1017 16.3964L19.102 16.3979ZM4.16151 8.86616C4.16151 4.6446 7.34249 1.1001 11.4115 1.1001C13.4643 1.1001 15.3062 2.01352 16.6139 3.45642C17.8865 4.86053 18.6614 6.77212 18.6614 8.86616V11.675C18.6614 12.3398 18.7521 12.6483 18.9439 12.9914C19.1077 13.2845 19.3274 13.5777 19.6673 14.0312C19.844 14.267 20.0531 14.5461 20.3038 14.8911C20.6663 15.39 20.976 15.9789 20.8836 16.5887C20.7712 17.3309 20.1702 17.6445 19.7821 17.7632C19.391 17.8828 18.951 17.9001 18.6189 17.9001C18.4429 17.9001 18.2718 17.8947 18.1256 17.8898L18.0934 17.8888C17.9555 17.8842 17.8492 17.8806 17.7614 17.8806H5.05027C4.82834 17.8806 4.5128 17.8806 4.1906 17.8529C3.87325 17.8256 3.47692 17.7665 3.11841 17.6123C2.7536 17.4554 2.30211 17.14 2.14903 16.5474C2.00561 15.9922 2.19323 15.4424 2.46917 14.9678C2.71553 14.544 2.95984 14.1875 3.17725 13.8783C3.22084 13.8164 3.26259 13.7573 3.3027 13.7006C3.46934 13.4648 3.60755 13.2694 3.73063 13.0717C4.00903 12.6248 4.16151 12.2422 4.16151 11.675V8.86616Z" />
<path fill-rule="evenodd" clip-rule="evenodd" d="M9.89998 19.0001C9.89998 19.4306 10.4185 20.1001 11.5 20.1001C12.5814 20.1001 13.1 19.4306 13.1 19.0001H14.9C14.9 20.7788 13.18 21.9001 11.5 21.9001C9.82 21.9001 8.09998 20.7788 8.09998 19.0001H9.89998Z" />
</svg>
