<svg width="24" height="24" viewBox="0 0 24 24" fill="currentColor" xmlns="http://www.w3.org/2000/svg">
<path fill-rule="evenodd" clip-rule="evenodd" d="M11.906 2.90385C8.77307 2.90385 6.10829 5.65763 6.10829 9.2141V12.185C6.10829 13.2356 5.78803 13.9863 5.36045 14.6688C5.19698 14.9298 5.00962 15.1931 4.82988 15.4456C4.56311 15.8205 4.30737 16.182 4.04856 16.6246C3.9182 16.8475 4.18998 16.8055 4.38849 16.8225C4.64306 16.8442 4.90495 16.8448 5.15083 16.8448H18.661C18.7885 16.8448 18.9345 16.8496 19.0706 16.8542C19.0846 16.8547 19.0985 16.8551 19.1123 16.8556C19.2677 16.8608 19.4212 16.8654 19.5732 16.8654C19.7902 16.8654 19.9762 16.9243 19.8165 16.7057C19.6195 16.4361 19.4316 16.1865 19.2559 15.9531C18.8361 15.3954 18.486 14.9304 18.2476 14.5063C17.8484 13.7963 17.7036 13.1323 17.7036 12.185V9.2141C17.7036 7.47135 17.0557 5.90532 16.0215 4.77077C14.9605 3.60683 13.5023 2.90385 11.906 2.90385ZM4.19345 9.2141C4.19345 4.74899 7.57739 1 11.906 1C14.0898 1 16.0492 1.96611 17.4403 3.49226C18.7941 4.97738 19.6185 6.99925 19.6185 9.2141V12.185C19.6185 12.8882 19.715 13.2145 19.919 13.5773C20.0933 13.8873 20.327 14.1974 20.6886 14.6772C20.8765 14.9265 21.099 15.2218 21.3656 15.5866C21.7513 16.1144 22.0807 16.7372 21.9825 17.3821C21.8629 18.1672 21.2236 18.4989 20.8107 18.6245C20.3946 18.751 19.9265 18.7692 19.5732 18.7692C19.386 18.7692 19.204 18.7635 19.0485 18.7584L19.0142 18.7572C18.8675 18.7524 18.7544 18.7486 18.661 18.7486H5.13892C4.90283 18.7486 4.56715 18.7486 4.2244 18.7193C3.8868 18.6904 3.46518 18.6279 3.0838 18.4648C2.69572 18.2989 2.21543 17.9653 2.05257 17.3385C1.90001 16.7513 2.09959 16.1698 2.39314 15.6677C2.65522 15.2195 2.91511 14.8425 3.14639 14.5155C3.19276 14.4499 3.23719 14.3874 3.27985 14.3274C3.45713 14.0781 3.60415 13.8713 3.73508 13.6623C4.03124 13.1895 4.19345 12.7849 4.19345 12.185V9.2141Z" />
<path fill-rule="evenodd" clip-rule="evenodd" d="M10.298 19.9327C10.298 20.388 10.8497 21.0962 12.0001 21.0962C13.1506 21.0962 13.7022 20.388 13.7022 19.9327H15.6171C15.6171 21.814 13.7873 23 12.0001 23C10.213 23 8.3832 21.814 8.3832 19.9327H10.298Z" />
</svg>
