<svg width="24" height="24" viewBox="0 0 24 24" fill="currentColor" xmlns="http://www.w3.org/2000/svg">
<path fill-rule="evenodd" clip-rule="evenodd" d="M9.91421 14.9984L3.41421 21.4984L2 20.0841L8.5 13.5841L9.91421 14.9984Z" />
<path d="M12.5974 18.3869L5.41421 11.2037C5.02369 10.8132 5.02702 10.1828 5.47065 9.85382C6.93952 8.76462 9.54388 7.42619 11.7071 7.29124L14.0395 3.03858C14.6807 1.86959 16.2646 1.64337 17.2073 2.58614L21.1677 6.54648C22.1244 7.50325 21.8749 9.11416 20.6734 9.73655L16.7071 11.7912C16.5737 13.9292 15.0099 16.8232 13.9349 18.3197C13.6127 18.7683 12.9879 18.7774 12.5974 18.3869Z" />
<path fill-rule="evenodd" clip-rule="evenodd" d="M13.1628 2.5577C14.1245 0.804198 16.5003 0.464879 17.9144 1.87904L21.8748 5.83937C23.3099 7.27453 22.9356 9.69089 21.1334 10.6245L17.6426 12.4328C17.4783 13.5232 17.0585 14.6798 16.5825 15.7141C16.0138 16.95 15.3219 18.103 14.7471 18.9032C14.015 19.9223 12.6542 19.8578 11.8903 19.094L4.70711 11.9108C3.94867 11.1523 3.87083 9.79519 4.87501 9.05056C6.30061 7.99345 8.79048 6.66585 11.0828 6.34995L13.1628 2.5577ZM16.5002 3.29325C16.0288 2.82186 15.2369 2.93497 14.9163 3.51947L12.319 8.25501L11.7694 8.2893C9.93479 8.40375 7.6016 9.55291 6.1909 10.5661L13.2215 17.5967C13.7038 16.9046 14.2838 15.9252 14.7657 14.878C15.2884 13.7422 15.6537 12.6161 15.709 11.729L15.7443 11.1638L20.2134 8.84862C20.8141 8.53742 20.9389 7.73197 20.4606 7.25358L16.5002 3.29325Z" />
</svg>
