<svg width="24" height="24" viewBox="0 0 24 24" fill="currentColor" xmlns="http://www.w3.org/2000/svg">
<path fill-rule="evenodd" clip-rule="evenodd" d="M8.92949 14.9376C6.73681 15.7272 5.20606 17.3817 4.49992 19.5C4.3211 20.0364 7.36082 23.0654 12 23.0654C15 23.0654 18.2999 21.8654 19.4999 19.5C19.1439 17.3642 17.4428 15.6998 15.1044 14.9181C14.1583 14.6018 13.1079 14.4301 12 14.4301C10.8696 14.4301 9.84222 14.6089 8.92949 14.9376ZM9.27722 12.7481C10.0104 13.3729 10.9612 13.7501 12 13.7501C13.0414 13.7501 13.9943 13.3711 14.7282 12.7435C15.629 11.9732 16.2 10.8283 16.2 9.5501C16.2 7.2305 14.3196 5.3501 12 5.3501C9.68042 5.3501 7.80002 7.2305 7.80002 9.5501C7.80002 10.8309 8.37328 11.9777 9.27722 12.7481ZM17.327 19.1614C16.9437 19.597 16.3768 20.005 15.6176 20.34C14.5489 20.8115 13.2529 21.0654 12 21.0654C10.1185 21.0654 8.56134 20.4499 7.50403 19.7884C7.20698 19.6025 6.96201 19.4208 6.76971 19.26C7.66309 17.5766 9.40372 16.4301 12 16.4301C14.8487 16.4301 16.7021 17.7256 17.327 19.1614ZM12 11.7501C13.215 11.7501 14.2 10.7651 14.2 9.5501C14.2 8.33507 13.215 7.3501 12 7.3501C10.785 7.3501 9.80002 8.33507 9.80002 9.5501C9.80002 10.7651 10.785 11.7501 12 11.7501Z" />
<path fill-rule="evenodd" clip-rule="evenodd" d="M12 21C16.9706 21 21 16.9706 21 12C21 7.02944 16.9706 3 12 3C7.02944 3 3 7.02944 3 12C3 16.9706 7.02944 21 12 21ZM12 23C18.0751 23 23 18.0751 23 12C23 5.92487 18.0751 1 12 1C5.92487 1 1 5.92487 1 12C1 18.0751 5.92487 23 12 23Z" />
</svg>
