<svg width="24" height="24" viewBox="0 0 24 24" fill="currentColor" xmlns="http://www.w3.org/2000/svg">
<path fill-rule="evenodd" clip-rule="evenodd" d="M5.0001 5.28584C4.39258 5.28584 3.9001 5.77833 3.9001 6.38584V19.3858C3.9001 19.9934 4.39258 20.4858 5.0001 20.4858H18.0001C18.6076 20.4858 19.1001 19.9934 19.1001 19.3858V12.3546H20.9001V19.3858C20.9001 20.9875 19.6017 22.2858 18.0001 22.2858H5.0001C3.39847 22.2858 2.1001 20.9875 2.1001 19.3858V6.38584C2.1001 4.78421 3.39847 3.48584 5.0001 3.48584H12.5626V5.28584H5.0001Z" />
<path fill-rule="evenodd" clip-rule="evenodd" d="M22.7072 2.70711L10.7072 14.7071L9.29297 13.2929L21.293 1.29289L22.7072 2.70711Z" />
<path fill-rule="evenodd" clip-rule="evenodd" d="M21.0001 3H15.0001V1H23.0001V9H21.0001V3Z" />
</svg>
