<svg width="24" height="24" viewBox="0 0 24 24" fill="currentColor" xmlns="http://www.w3.org/2000/svg">
<path fill-rule="evenodd" clip-rule="evenodd" d="M2.95 12.475C2.95 7.21449 7.21449 2.95 12.475 2.95C17.7355 2.95 22 7.21449 22 12.475C22 14.9465 21.0587 17.1981 19.5151 18.8909C18.7834 17.4407 17.3779 16.3237 15.6067 15.7218C14.661 15.4004 13.6111 15.2259 12.5038 15.2259C11.374 15.2259 10.3471 15.4076 9.43485 15.7416C7.71848 16.3699 6.4079 17.5372 5.58121 19.0478C3.95096 17.3384 2.95 15.0236 2.95 12.475ZM9.61711 23.5913C4.66236 22.3212 1 17.8258 1 12.475C1 6.13753 6.13753 1 12.475 1C18.8125 1 23.95 6.13753 23.95 12.475C23.95 16.9273 21.4143 20.7874 17.7082 22.6899C16.2112 23.5608 14.3035 24 12.5038 24C11.4533 24 10.4847 23.842 9.61711 23.5913ZM12.5038 14.535C11.4655 14.535 10.5152 14.1518 9.7824 13.5169C8.87892 12.7341 8.30593 11.5688 8.30593 10.2675C8.30593 7.91062 10.1854 6 12.5038 6C14.8223 6 16.7017 7.91062 16.7017 10.2675C16.7017 11.5662 16.131 12.7295 15.2306 13.5122C14.4971 14.1499 13.5447 14.535 12.5038 14.535ZM16.1196 21.2307C16.8784 20.8904 17.4451 20.4759 17.8281 20.0332C17.2036 18.5744 15.3511 17.258 12.5038 17.258C9.90884 17.258 8.16908 18.423 7.27614 20.1334C7.46834 20.2968 7.7132 20.4815 8.01009 20.6703C9.06687 21.3425 10.6232 21.9679 12.5038 21.9679C13.7561 21.9679 15.0514 21.7099 16.1196 21.2307ZM14.7027 10.2675C14.7027 11.502 13.7183 12.5028 12.5038 12.5028C11.2894 12.5028 10.3049 11.502 10.3049 10.2675C10.3049 9.03294 11.2894 8.03214 12.5038 8.03214C13.7183 8.03214 14.7027 9.03294 14.7027 10.2675Z" />
</svg>
