<svg width="24" height="24" viewBox="0 0 24 24" fill="currentColor" xmlns="http://www.w3.org/2000/svg">
<path fill-rule="evenodd" clip-rule="evenodd" d="M2.32177 2.87995C1.57318 2.94801 1 3.57565 1 4.32733V18.5294C1 19.2952 1.69354 19.874 2.44698 19.737C5.06956 19.2602 7.77636 19.6963 10.1165 20.9727L11.2311 21.5807C11.7104 21.8421 12.2896 21.8421 12.7689 21.5807L13.8835 20.9727C16.2236 19.6963 18.9304 19.2602 21.553 19.737C22.3065 19.874 23 19.2952 23 18.5294V4.32733C23 3.57565 22.4268 2.94801 21.6782 2.87995C18.9542 2.63232 16.2181 3.19935 13.8168 4.50912L12 5.50011L10.1832 4.50912C7.78193 3.19935 5.04576 2.63232 2.32177 2.87995ZM6.95 13.5C7.64036 13.5 8.2 12.9404 8.2 12.25C8.2 11.5596 7.64036 11 6.95 11C6.25964 11 5.7 11.5596 5.7 12.25C5.7 12.9404 6.25964 13.5 6.95 13.5ZM13.2 12.25C13.2 12.9404 12.6404 13.5 11.95 13.5C11.2596 13.5 10.7 12.9404 10.7 12.25C10.7 11.5596 11.2596 11 11.95 11C12.6404 11 13.2 11.5596 13.2 12.25ZM16.95 13.5C17.6404 13.5 18.2 12.9404 18.2 12.25C18.2 11.5596 17.6404 11 16.95 11C16.2596 11 15.7 11.5596 15.7 12.25C15.7 12.9404 16.2596 13.5 16.95 13.5Z" />
</svg>
