<svg width="24" height="24" viewBox="0 0 24 24" fill="currentColor" xmlns="http://www.w3.org/2000/svg">
<path d="M17.9448 14.704C18.246 13.8357 18.3967 12.9202 18.3967 11.9575C18.3967 9.73016 17.8036 7.97469 16.6175 6.69112C15.4501 5.38868 13.8592 4.73745 11.8447 4.73745C9.83012 4.73745 8.22978 5.38868 7.04364 6.69112C5.87634 7.97469 5.29268 9.73016 5.29268 11.9575C5.29268 14.166 5.87634 15.9215 7.04364 17.2239C8.22978 18.5075 9.83012 19.1493 11.8447 19.1493C12.5789 19.1493 13.2662 19.0644 13.9063 18.8945C14.5464 18.7246 15.0548 18.4981 15.4313 18.2149L13.1414 15.7005C12.7687 15.2913 12.7994 14.6571 13.2098 14.2857L14.9006 12.7555C15.316 12.3796 15.9591 12.4183 16.3265 12.8412L17.9448 14.704ZM20.6142 22.31C20.2028 22.689 19.5604 22.6568 19.1889 22.2385L18.0295 20.9331C17.2576 21.5182 16.2974 21.9901 15.1489 22.3488C14.0004 22.7074 12.899 22.8867 11.8447 22.8867C9.75481 22.8867 7.88147 22.4243 6.22465 21.4994C4.58665 20.5744 3.30638 19.2814 2.38383 17.6203C1.46128 15.9592 1 14.0716 1 11.9575C1 9.84342 1.46128 7.95581 2.38383 6.29472C3.30638 4.63363 4.58665 3.34063 6.22465 2.4157C7.88147 1.4719 9.75481 1 11.8447 1C13.9345 1 15.7985 1.4719 17.4365 2.4157C19.0933 3.34063 20.383 4.63363 21.3055 6.29472C22.2281 7.95581 22.6893 9.84342 22.6893 11.9575C22.6517 12.9202 22.4728 13.9584 22.1528 15.0721C21.8327 16.1858 21.4373 17.139 20.9666 17.9318L22.3138 19.3762C22.6921 19.7818 22.668 20.4179 22.26 20.7937L20.6142 22.31Z" />
</svg>
