<svg width="24" height="24" viewBox="0 0 24 24" fill="currentColor" xmlns="http://www.w3.org/2000/svg">
<path d="M5.12276 9.68637C5.73701 6.4483 8.5836 4 11.9999 4C14.4339 4 16.5792 5.2422 17.8341 7.13028L14.8584 10.106L22.3674 10.3988L22.0747 2.88971L19.2702 5.69423C17.6339 3.45588 14.9876 2 11.9999 2C7.60501 2 3.94778 5.14912 3.15781 9.31363L2.97144 10.2961L4.93639 10.6688L5.12276 9.68637Z" />
<path d="M19.2447 13.8135C18.6304 17.0516 15.7838 19.4999 12.3675 19.4999C9.93355 19.4999 7.78821 18.2577 6.53332 16.3696L9.50906 13.3939L2 13.1011L2.29274 20.6102L5.09727 17.8057C6.73355 20.044 9.37986 21.4999 12.3675 21.4999C16.7624 21.4999 20.4197 18.3508 21.2096 14.1863L21.396 13.2038L19.431 12.8311L19.2447 13.8135Z" />
</svg>
