<svg width="24" height="24" viewBox="0 0 24 24" fill="currentColor" xmlns="http://www.w3.org/2000/svg">
<path fill-rule="evenodd" clip-rule="evenodd" d="M12.9001 6.09989V11.5499L17.2601 14.8199L16.1801 16.2599L11.1001 12.4499V6.09989H12.9001Z" />
<path fill-rule="evenodd" clip-rule="evenodd" d="M16.0502 4.98499C12.176 2.74824 7.22216 4.07563 4.98541 7.9498L3.42656 7.0498C6.16037 2.3147 12.2151 0.692337 16.9502 3.42615C21.6853 6.15996 23.3077 12.2147 20.5739 16.9498C17.8401 21.6849 11.7853 23.3073 7.05021 20.5734C5.24592 19.5317 3.89195 18.0057 3.06028 16.2547L4.68621 15.4825C5.36629 16.9143 6.47206 18.1612 7.95021 19.0146C11.8244 21.2514 16.7783 19.924 19.015 16.0498C21.2518 12.1756 19.9244 7.22175 16.0502 4.98499Z" />
<path d="M2.49613 10.7165L1.46265 4.60782L8.73292 9.15333L2.49613 10.7165Z" />
</svg>
