<svg width="24" height="24" viewBox="0 0 24 24" fill="currentColor" xmlns="http://www.w3.org/2000/svg">
<path fill-rule="evenodd" clip-rule="evenodd" d="M19 9.58871L12.4189 16L8 11.6951L9.63078 10.1064L12.4189 12.8226L17.3692 8L19 9.58871Z" />
<path fill-rule="evenodd" clip-rule="evenodd" d="M17.2057 4.20707C12.9018 1.72221 7.39839 3.19684 4.91352 7.50075L3.18176 6.50092C6.21882 1.24058 12.9452 -0.561748 18.2055 2.47531C23.4659 5.51237 25.2682 12.2387 22.2311 17.4991C19.1941 22.7594 12.4677 24.5617 7.20737 21.5247C5.20294 20.3674 3.69877 18.6722 2.77486 16.7269L4.58114 15.869C5.33666 17.4597 6.56508 18.8448 8.2072 19.7929C12.5111 22.2778 18.0145 20.8032 20.4994 16.4992C22.9842 12.1953 21.5096 6.69194 17.2057 4.20707Z" />
<path d="M2.14812 10.5744L1 3.78807L9.07674 8.83778L2.14812 10.5744Z" />
</svg>
