<svg width="24" height="24" viewBox="0 0 24 24" fill="currentColor" xmlns="http://www.w3.org/2000/svg">
<path d="M5.12283 9.68637C5.73708 6.4483 8.58368 4 12 4C14.434 4 16.5793 5.2422 17.8342 7.13028L14.8585 10.106L22.3675 10.3988L22.0748 2.88971L19.2702 5.69423C17.634 3.45588 14.9876 2 12 2C7.60508 2 3.94785 5.14912 3.15788 9.31363L2.97151 10.2961L4.93647 10.6688L5.12283 9.68637Z" />
<path d="M19.2447 13.8138C18.6304 17.0518 15.7838 19.5001 12.3675 19.5001C9.93355 19.5001 7.78821 18.2579 6.53332 16.3698L9.50906 13.3941L2 13.1014L2.29274 20.6104L5.09727 17.8059C6.73355 20.0442 9.37986 21.5001 12.3675 21.5001C16.7624 21.5001 20.4197 18.351 21.2096 14.1865L21.396 13.204L19.431 12.8313L19.2447 13.8138Z" />
</svg>
