<svg width="24" height="24" viewBox="0 0 24 24" fill="currentColor" xmlns="http://www.w3.org/2000/svg">
<path fill-rule="evenodd" clip-rule="evenodd" d="M9.15791 2.66318C9.25807 1.77672 9.99922 1.0918 10.8986 1.0918H12.0007V2.7418H10.8986C10.8616 2.7418 10.8058 2.77344 10.7974 2.84877L10.7967 2.855L10.5708 4.75902C10.5164 5.23268 10.2136 5.61976 9.97089 5.87066C9.69979 6.15086 9.35903 6.40763 9.01133 6.61579C8.664 6.82371 8.27573 7.00349 7.89813 7.10808C7.55957 7.20187 7.06487 7.28235 6.61484 7.08406L6.61295 7.08323L4.89711 6.33234L4.89533 6.33156C4.87606 6.32308 4.85766 6.32254 4.83844 6.32915C4.81875 6.33593 4.79658 6.35118 4.77973 6.38126L3.67766 8.34214C3.6608 8.37239 3.65469 8.40903 3.66215 8.44647C3.66955 8.4836 3.68804 8.51175 3.71076 8.52983L5.19935 9.67612L5.20029 9.67685C5.58602 9.97317 5.74816 10.4573 5.82744 10.7832C5.91933 11.161 5.95946 11.59 5.95896 11.9997C5.95845 12.4094 5.91723 12.838 5.82537 13.2151C5.74601 13.5408 5.58509 14.0222 5.206 14.319L5.20075 14.3231L3.71174 15.4697L3.71075 15.4704C3.68804 15.4885 3.66955 15.5167 3.66215 15.5538C3.65469 15.5913 3.66065 15.6276 3.67753 15.6579L4.77973 17.619C4.79658 17.6491 4.81875 17.6643 4.83844 17.6711C4.85766 17.6777 4.87606 17.6772 4.89533 17.6687L6.61295 16.917L6.61489 16.9162C7.06499 16.7179 7.55982 16.7987 7.89809 16.8925C8.27558 16.9972 8.66381 17.177 9.01111 17.385C9.3588 17.5931 9.69956 17.8498 9.97067 18.1299C10.2133 18.3805 10.5164 18.7675 10.5708 19.2413L10.5711 19.2445L10.7965 21.1437C10.8014 21.1829 10.8192 21.2137 10.8408 21.2335C10.862 21.2528 10.882 21.2585 10.8986 21.2585H12.0007V22.9085H10.8986C9.98937 22.9085 9.26313 22.21 9.1584 21.3412L9.15822 21.3397L8.93596 19.4668C8.92828 19.4542 8.89434 19.3903 8.78518 19.2775C8.63519 19.1226 8.41578 18.9516 8.16357 18.8007C7.91099 18.6494 7.6596 18.5387 7.45712 18.4825C7.3271 18.4464 7.26002 18.4443 7.23978 18.4438L5.5604 19.1787L5.55921 19.1792C4.72698 19.5451 3.77649 19.203 3.3408 18.4264L2.23818 16.4646C1.80626 15.6937 1.99906 14.7124 2.69756 14.1681L2.70129 14.1652L4.14596 13.0528C4.15638 13.0311 4.18806 12.9649 4.22225 12.8245C4.27614 12.6033 4.30857 12.3097 4.30896 11.9976C4.30934 11.6854 4.27761 11.3928 4.2242 11.1732C4.19102 11.0369 4.16027 10.972 4.1498 10.9504L2.69755 9.83213C1.99905 9.28783 1.80626 8.30661 2.23818 7.53567L3.34025 5.57479C3.77585 4.79785 4.72696 4.45506 5.55941 4.8211L5.5604 4.82153L7.24007 5.5566C7.26018 5.55611 7.3273 5.55407 7.45765 5.51796C7.66008 5.46189 7.91136 5.35121 8.16382 5.20008C8.4159 5.04917 8.63518 4.87827 8.78508 4.72334C8.89449 4.61025 8.92833 4.54621 8.93592 4.53384L9.15791 2.66318ZM4.19542 10.9856L4.19404 10.9845L4.19542 10.9856Z" />
<path fill-rule="evenodd" clip-rule="evenodd" d="M14.8422 2.66318C14.742 1.77672 14.0008 1.0918 13.1015 1.0918H11.9994V2.7418H13.1015C13.1384 2.7418 13.1943 2.77344 13.2026 2.84877L13.2033 2.855L13.4293 4.75892C13.4844 5.24086 13.7706 5.63564 14.0295 5.9079C14.3066 6.19934 14.6534 6.45618 15.0049 6.65944C15.3565 6.86277 15.7466 7.03203 16.1243 7.12682C16.4665 7.21268 16.9491 7.27625 17.3852 7.08406L17.3871 7.08323L19.103 6.33234L19.1047 6.33156C19.124 6.32308 19.1424 6.32254 19.1616 6.32915C19.1813 6.33593 19.2035 6.35118 19.2203 6.38126L20.3224 8.34214C20.3393 8.37239 20.3454 8.40903 20.3379 8.44647C20.3305 8.4836 20.312 8.51175 20.2893 8.52983L18.8007 9.67612L18.7998 9.67684C18.4152 9.97227 18.2485 10.4501 18.1658 10.7815C18.0712 11.1604 18.0299 11.5896 18.0304 11.9995C18.0309 12.4095 18.0733 12.8382 18.1678 13.2165C18.2505 13.5478 18.416 14.0229 18.7941 14.319L18.7993 14.3231L20.2883 15.4697L20.2893 15.4704C20.312 15.4885 20.3305 15.5167 20.3379 15.5538C20.3454 15.5913 20.3394 15.6276 20.3225 15.6579L19.2203 17.619C19.2035 17.6491 19.1813 17.6643 19.1616 17.6711C19.1424 17.6777 19.124 17.6772 19.1047 17.6687L17.3871 16.917L17.3852 16.9162C16.9351 16.7179 16.4402 16.7987 16.102 16.8925C15.7245 16.9972 15.3363 17.177 14.9889 17.385C14.6413 17.5931 14.3005 17.8498 14.0294 18.1299C13.7868 18.3805 13.4836 18.7675 13.4293 19.2413L13.4289 19.2445L13.2035 21.1437C13.1987 21.1829 13.1808 21.2137 13.1592 21.2335C13.1381 21.2528 13.1181 21.2585 13.1015 21.2585H11.9994V22.9085H13.1015C14.0107 22.9085 14.7369 22.21 14.8417 21.3412L14.8418 21.3397L15.0641 19.4668C15.0718 19.4542 15.1057 19.3903 15.2149 19.2775C15.3649 19.1226 15.5843 18.9516 15.8365 18.8007C16.0891 18.6494 16.3405 18.5387 16.5429 18.4825C16.673 18.4464 16.74 18.4443 16.7603 18.4438L18.4397 19.1787L18.4408 19.1792C19.2731 19.5451 20.2236 19.203 20.6593 18.4264L21.7619 16.4646C22.1938 15.6937 22.001 14.7124 21.3025 14.1681L21.2988 14.1652L19.8488 13.0487C19.8393 13.0296 19.8053 12.9635 19.7686 12.8166C19.7138 12.5972 19.6807 12.3066 19.6804 11.9975C19.68 11.6882 19.7124 11.3986 19.7667 11.181C19.8023 11.0384 19.8353 10.9737 19.8448 10.9546L21.3025 9.83213C22.001 9.28783 22.1938 8.30661 21.7619 7.53567L20.6598 5.57479C20.2242 4.79785 19.2731 4.45506 18.4406 4.8211L18.4397 4.82153L16.7525 5.55986C16.7372 5.5598 16.6682 5.56216 16.5259 5.52644C16.3257 5.4762 16.0781 5.37403 15.8309 5.23109C15.5836 5.08808 15.3706 4.92382 15.2252 4.77089C15.093 4.63194 15.0673 4.559 15.0673 4.559L14.8422 2.66318ZM19.8046 10.9856L19.806 10.9845L19.8046 10.9856Z" />
<path fill-rule="evenodd" clip-rule="evenodd" d="M12.0007 9.15781C10.4313 9.15781 9.15901 10.4301 9.15901 11.9995C9.15901 13.5689 10.4313 14.8411 12.0007 14.8411C13.5701 14.8411 14.8423 13.5689 14.8423 11.9995C14.8423 10.4301 13.5701 9.15781 12.0007 9.15781ZM7.50901 11.9995C7.50901 9.5188 9.52 7.50781 12.0007 7.50781C14.4814 7.50781 16.4923 9.5188 16.4923 11.9995C16.4923 14.4802 14.4814 16.4911 12.0007 16.4911C9.52 16.4911 7.50901 14.4802 7.50901 11.9995Z" />
</svg>
