<svg width="24" height="24" viewBox="0 0 24 24" fill="currentColor" xmlns="http://www.w3.org/2000/svg">
<path d="M7.31752 1.69203C7.87045 0.769322 9.12955 0.769322 9.68248 1.69204L11.8215 5.26152C11.9114 5.41164 12.0256 5.54343 12.1586 5.65074L15.4403 8.298C16.1866 8.90002 16.1866 10.1 15.4403 10.702L12.1586 13.3493C12.0256 13.4566 11.9114 13.5884 11.8215 13.7385L9.68248 17.308C9.12955 18.2307 7.87045 18.2307 7.31752 17.308L5.17854 13.7385C5.08859 13.5884 4.97443 13.4566 4.8414 13.3493L1.55972 10.702C0.813426 10.1 0.813425 8.90003 1.55972 8.298L4.8414 5.65074C4.97443 5.54343 5.08859 5.41164 5.17854 5.26152L7.31752 1.69203Z" />
<path d="M17.7905 13.4071C18.1223 12.8643 18.8777 12.8643 19.2095 13.4071L20.4929 15.5068C20.5468 15.5951 20.6153 15.6726 20.6952 15.7357L22.6642 17.2929C23.1119 17.6471 23.1119 18.3529 22.6642 18.7071L20.6952 20.2643C20.6153 20.3274 20.5468 20.4049 20.4929 20.4932L19.2095 22.5929C18.8777 23.1357 18.1223 23.1357 17.7905 22.5929L16.5071 20.4932C16.4532 20.4049 16.3847 20.3274 16.3048 20.2643L14.3358 18.7071C13.8881 18.3529 13.8881 17.6471 14.3358 17.2929L16.3048 15.7357C16.3847 15.6726 16.4532 15.5951 16.5071 15.5068L17.7905 13.4071Z" />
</svg>
