<svg width="24" height="24" viewBox="0 0 24 24" fill="currentColor" xmlns="http://www.w3.org/2000/svg">
<path fill-rule="evenodd" clip-rule="evenodd" d="M12.0001 5.9001C7.52659 5.9001 3.9001 9.52659 3.9001 14.0001C3.9001 18.4736 7.52659 22.1001 12.0001 22.1001C16.4736 22.1001 20.1001 18.4736 20.1001 14.0001C20.1001 9.52659 16.4736 5.9001 12.0001 5.9001ZM2.1001 14.0001C2.1001 8.53248 6.53248 4.1001 12.0001 4.1001C17.4677 4.1001 21.9001 8.53248 21.9001 14.0001C21.9001 19.4677 17.4677 23.9001 12.0001 23.9001C6.53248 23.9001 2.1001 19.4677 2.1001 14.0001Z" />
<path fill-rule="evenodd" clip-rule="evenodd" d="M12.9001 8.1001L12.9001 14.9001H11.1001L11.1001 8.1001H12.9001Z" />
<path fill-rule="evenodd" clip-rule="evenodd" d="M21.3953 4.5512C21.7468 4.90267 21.7468 5.47252 21.3953 5.82399L19.4061 7.81317C19.0546 8.16464 18.4848 8.16464 18.1333 7.81317C17.7818 7.46169 17.7818 6.89184 18.1333 6.54037L20.1225 4.5512C20.474 4.19973 21.0438 4.19973 21.3953 4.5512Z" />
<path fill-rule="evenodd" clip-rule="evenodd" d="M15.9001 2.9001H8.1001V1.1001H15.9001V2.9001Z" />
<path fill-rule="evenodd" clip-rule="evenodd" d="M22.0001 7.39057L18.6097 4.00008L19.8825 2.72731L23.2729 6.11779L22.0001 7.39057Z" />
</svg>
