<svg width="24" height="24" viewBox="0 0 24 24" fill="currentColor" xmlns="http://www.w3.org/2000/svg">
<path fill-rule="evenodd" clip-rule="evenodd" d="M9.66676 3.9001C6.48192 3.9001 3.9001 6.48192 3.9001 9.66676C3.9001 12.8516 6.48192 15.4334 9.66676 15.4334C11.1491 15.4334 12.5007 14.8742 13.5223 13.9551L13.9551 13.5223C14.8742 12.5007 15.4334 11.1491 15.4334 9.66676C15.4334 6.48192 12.8516 3.9001 9.66676 3.9001ZM15.6158 14.3431C16.629 13.0559 17.2334 11.4319 17.2334 9.66676C17.2334 5.48781 13.8457 2.1001 9.66676 2.1001C5.48781 2.1001 2.1001 5.48781 2.1001 9.66676C2.1001 13.8457 5.48781 17.2334 9.66676 17.2334C11.4319 17.2334 13.0559 16.629 14.3431 15.6158L20.0001 21.2729L21.2729 20.0001L15.6158 14.3431Z" />
</svg>
