<svg width="24" height="24" viewBox="0 0 24 24" fill="currentColor" xmlns="http://www.w3.org/2000/svg">
<path d="M12.0007 1.91699H10.8986C10.4298 1.91699 10.0309 2.27621 9.97744 2.75797L9.75127 4.66392C9.66395 5.44163 7.67016 6.64907 6.94674 6.32898L5.22783 5.57674C4.79605 5.38657 4.29436 5.55984 4.05996 5.97822L2.95789 7.9391C2.72349 8.35748 2.83041 8.88996 3.20462 9.18156L4.69736 10.331C5.28302 10.7801 5.27588 13.2166 4.69736 13.6696L3.20462 14.8191C2.83041 15.1107 2.72349 15.6432 2.95789 16.0616L4.05996 18.0224C4.29436 18.4408 4.79605 18.6141 5.22783 18.4239L6.94674 17.6717C7.66944 17.3519 9.66406 18.56 9.75127 19.3367L9.97744 21.2427C10.035 21.7202 10.4298 22.0837 10.8986 22.0837H12.0007" stroke="#1D1E1F" stroke-width="1.65" stroke-linejoin="round"/>
<path d="M11.9993 1.91699H13.1014C13.5702 1.91699 13.9691 2.27621 14.0226 2.75797L14.2487 4.66392C14.3474 5.54259 16.333 6.64767 17.0533 6.32898L18.7722 5.57674C19.2039 5.38657 19.7056 5.55984 19.94 5.97822L21.0421 7.9391C21.2765 8.35748 21.1696 8.88996 20.7954 9.18156L19.3026 10.331C18.7028 10.7909 18.7097 13.2053 19.3026 13.6696L20.7954 14.8191C21.1696 15.1107 21.2765 15.6432 21.0421 16.0616L19.94 18.0224C19.7056 18.4408 19.2039 18.6141 18.7722 18.4239L17.0533 17.6717C16.3306 17.3519 14.3359 18.56 14.2487 19.3367L14.0226 21.2427C13.965 21.7202 13.5702 22.0837 13.1014 22.0837H11.9993" stroke="#1D1E1F" stroke-width="1.65" stroke-linejoin="round"/>
<circle cx="12.0007" cy="11.9997" r="3.66667" stroke="#1D1E1F" stroke-width="1.65"/>
</svg>
