<svg width="24" height="24" viewBox="0 0 24 24" fill="currentColor" xmlns="http://www.w3.org/2000/svg">
<path fill-rule="evenodd" clip-rule="evenodd" d="M10.2236 2.0561C11.0078 0.64797 12.992 0.647962 13.7763 2.0561L16.3567 6.68954C16.3638 6.70232 16.3714 6.70984 16.3767 6.71388C16.3819 6.71785 16.3851 6.7186 16.3855 6.7187L21.3964 7.85354C22.961 8.20788 23.4834 10.1157 22.4937 11.2741L19.0776 15.2726C19.0623 15.2905 19.0484 15.3239 19.0523 15.3646L19.5688 20.6994C19.7155 22.2146 18.2052 23.5101 16.6943 22.8138L12.0026 20.6515C12.0001 20.6504 11.9994 20.6506 11.9999 20.6506C12.0005 20.6506 11.9998 20.6504 11.9972 20.6515L7.30553 22.8138C5.79464 23.5101 4.28438 22.2146 4.43107 20.6994L4.94754 15.3646C4.95148 15.3239 4.93751 15.2905 4.92224 15.2726L1.50613 11.2741C0.516471 10.1157 1.03882 8.20788 2.60344 7.85354L7.61434 6.7187C7.6148 6.7186 7.61791 6.71785 7.62315 6.71388C7.62846 6.70984 7.63605 6.70232 7.64316 6.68955L10.2236 2.0561ZM11.9871 3.00627C11.9842 3.0092 11.9783 3.01598 11.9709 3.02921L9.39046 7.66265C9.10967 8.16685 8.6299 8.53935 8.0561 8.6693L3.0452 9.80414C3.03702 9.80599 3.03494 9.80767 3.03148 9.81105C3.02553 9.81688 3.01449 9.8312 3.00688 9.85569C2.99929 9.88012 2.99834 9.90458 3.00199 9.9244C3.00514 9.94148 3.01184 9.95754 3.02674 9.97497L6.44284 13.9734C6.81839 14.413 6.99337 14.9878 6.93823 15.5574L6.42176 20.8922C6.41849 20.926 6.42451 20.9466 6.43021 20.9594C6.43692 20.9743 6.44685 20.986 6.45672 20.9935C6.46021 20.9962 6.46305 20.9978 6.4651 20.9989C6.46605 20.9985 6.46715 20.998 6.46842 20.9974L11.1601 18.8352C11.6941 18.5891 12.3057 18.5891 12.8397 18.8352L17.5314 20.9974C17.5327 20.998 17.5338 20.9985 17.5348 20.9989C17.5368 20.9978 17.5396 20.9962 17.5431 20.9935C17.553 20.986 17.5629 20.9743 17.5696 20.9594C17.5753 20.9466 17.5814 20.926 17.5781 20.8922L17.0616 15.5574C17.0065 14.9878 17.1815 14.413 17.557 13.9734L20.9731 9.97497C20.988 9.95754 20.9947 9.94148 20.9979 9.9244C21.0015 9.90458 21.0006 9.88012 20.993 9.85569C20.9854 9.8312 20.9743 9.81688 20.9684 9.81105C20.9649 9.80767 20.9628 9.80599 20.9547 9.80414L15.9438 8.6693C15.37 8.53935 14.8902 8.16685 14.6094 7.66265L12.0289 3.0292C12.0216 3.01597 12.0156 3.00919 12.0127 3.00627C12.0098 3.00324 12.0079 3.00209 12.0072 3.0017C12.0058 3.0009 12.0035 3 11.9999 3C11.9964 3 11.994 3.0009 11.9926 3.0017C11.992 3.0021 11.9901 3.00324 11.9871 3.00627Z" />
</svg>
