<svg width="24" height="24" viewBox="0 0 24 24" fill="currentColor" xmlns="http://www.w3.org/2000/svg">
<path d="M22.8783 7.67086C23.3039 7.3463 23.3039 6.6537 22.8783 6.32914L19.3611 3.64669C18.8694 3.27169 18.1975 3.65907 18.1975 4.31755V9.68246C18.1975 10.3409 18.8694 10.7283 19.3611 10.3533L22.8783 7.67086Z" />
<path d="M22.8783 17.6709C23.3039 17.3463 23.3039 16.6537 22.8783 16.3291L19.3611 13.6467C18.8694 13.2717 18.1975 13.6591 18.1975 14.3175V19.6825C18.1975 20.3409 18.8694 20.7283 19.3611 20.3533L22.8783 17.6709Z" />
<path d="M1 7H3.5775C4.79264 7 5.94189 7.55236 6.70098 8.50122L12.299 15.4988C13.0581 16.4476 14.2074 17 15.4225 17H18.5" stroke="black" stroke-width="3"/>
<path d="M18.5 7H16.4225C15.2074 7 14.0581 7.55236 13.299 8.50122L7.70098 15.4988C6.94189 16.4476 5.79264 17 4.5775 17H1" stroke="black" stroke-width="3"/>
</svg>
