<svg width="24" height="24" viewBox="0 0 24 24" fill="currentColor" xmlns="http://www.w3.org/2000/svg">
<path fill-rule="evenodd" clip-rule="evenodd" d="M12.0001 5.9001C7.52659 5.9001 3.9001 9.52659 3.9001 14.0001C3.9001 18.4736 7.52659 22.1001 12.0001 22.1001C16.4736 22.1001 20.1001 18.4736 20.1001 14.0001C20.1001 9.52659 16.4736 5.9001 12.0001 5.9001ZM2.1001 14.0001C2.1001 8.53248 6.53248 4.1001 12.0001 4.1001C17.4677 4.1001 21.9001 8.53248 21.9001 14.0001C21.9001 19.4677 17.4677 23.9001 12.0001 23.9001C6.53248 23.9001 2.1001 19.4677 2.1001 14.0001Z" />
<path fill-rule="evenodd" clip-rule="evenodd" d="M12.9001 8.1001L12.9001 14.9001L11.1001 14.9001L11.1001 8.1001L12.9001 8.1001Z" />
<path fill-rule="evenodd" clip-rule="evenodd" d="M21.3952 4.55095C21.7467 4.90242 21.7467 5.47227 21.3952 5.82374L19.406 7.81291C19.0545 8.16438 18.4847 8.16438 18.1332 7.81291C17.7817 7.46144 17.7817 6.89159 18.1332 6.54012L20.1224 4.55095C20.4739 4.19947 21.0437 4.19947 21.3952 4.55095Z" />
<path fill-rule="evenodd" clip-rule="evenodd" d="M15.8999 2.9001L8.0999 2.9001V1.1001L15.8999 1.1001V2.9001Z" />
<path fill-rule="evenodd" clip-rule="evenodd" d="M21.9999 7.39045L18.6095 3.99996L19.8823 2.72719L23.2727 6.11768L21.9999 7.39045Z" />
</svg>
