<svg width="24" height="24" viewBox="0 0 24 24" fill="currentColor" xmlns="http://www.w3.org/2000/svg">
<path fill-rule="evenodd" clip-rule="evenodd" d="M10.0143 4.05906C6.72532 4.05906 4.05906 6.72532 4.05906 10.0143C4.05906 13.3033 6.72532 15.9696 10.0143 15.9696C11.5451 15.9696 12.941 15.392 13.9959 14.4429L14.4429 13.9959C15.392 12.941 15.9696 11.5451 15.9696 10.0143C15.9696 6.72532 13.3033 4.05906 10.0143 4.05906ZM16.158 14.8435C17.2043 13.5143 17.8284 11.8372 17.8284 10.0143C17.8284 5.6987 14.3299 2.2002 10.0143 2.2002C5.6987 2.2002 2.2002 5.6987 2.2002 10.0143C2.2002 14.3299 5.6987 17.8284 10.0143 17.8284C11.8372 17.8284 13.5143 17.2043 14.8435 16.158L20.6856 22L22 20.6856L16.158 14.8435Z" />
</svg>
