<svg width="24" height="24" viewBox="0 0 24 24" fill="currentColor" xmlns="http://www.w3.org/2000/svg">
<path fill-rule="evenodd" clip-rule="evenodd" d="M18 7C19.1046 7 20 6.10457 20 5C20 3.89543 19.1046 3 18 3C16.8954 3 16 3.89543 16 5C16 6.10457 16.8954 7 18 7ZM18 9C20.2091 9 22 7.20914 22 5C22 2.79086 20.2091 1 18 1C15.7909 1 14 2.79086 14 5C14 5.23795 14.0208 5.47104 14.0606 5.69757L7.98829 9.34096C7.25566 8.5182 6.18834 8 5 8C2.79086 8 1 9.79086 1 12C1 14.2091 2.79086 16 5 16C6.34381 16 7.53285 15.3373 8.25816 14.321L14.1636 17.8642C14.0571 18.2242 14 18.6054 14 19C14 21.2091 15.7909 23 18 23C20.2091 23 22 21.2091 22 19C22 16.7909 20.2091 15 18 15C16.9066 15 15.9156 15.4387 15.1935 16.1498L8.97815 12.4206C8.9926 12.2824 9 12.142 9 12C9 11.6991 8.96677 11.406 8.90379 11.124L14.8991 7.52688C15.6325 8.42592 16.7492 9 18 9ZM5 14C6.10457 14 7 13.1046 7 12C7 10.8954 6.10457 10 5 10C3.89543 10 3 10.8954 3 12C3 13.1046 3.89543 14 5 14ZM20 19C20 20.1046 19.1046 21 18 21C16.8954 21 16 20.1046 16 19C16 17.8954 16.8954 17 18 17C19.1046 17 20 17.8954 20 19Z" />
</svg>
