<svg width="24" height="24" viewBox="0 0 24 24" fill="currentColor" xmlns="http://www.w3.org/2000/svg">
<path fill-rule="evenodd" clip-rule="evenodd" d="M21.9001 19.0001C21.9001 20.6017 20.6017 21.9001 19.0001 21.9001H5.0001C3.39847 21.9001 2.1001 20.6017 2.1001 19.0001L2.1001 10.5003H3.9001L3.9001 19.0001C3.9001 19.6076 4.39258 20.1001 5.0001 20.1001L19.0001 20.1001C19.6076 20.1001 20.1001 19.6076 20.1001 19.0001V10.5003L21.9001 10.5003V19.0001Z" />
<path fill-rule="evenodd" clip-rule="evenodd" d="M12.9001 2.2V17.5L11.1001 17.5L11.1001 2.2L12.9001 2.2Z" />
<path fill-rule="evenodd" clip-rule="evenodd" d="M16.0001 7.37279L12.0001 3.37279L8.0001 7.37279L6.72731 6.1L12.0001 0.827208L17.2729 6.1L16.0001 7.37279Z" />
</svg>
