<svg width="24" height="24" viewBox="0 0 24 24" fill="currentColor" xmlns="http://www.w3.org/2000/svg">
<path fill-rule="evenodd" clip-rule="evenodd" d="M21.9001 18.9998C21.9001 20.6015 20.6017 21.8998 19.0001 21.8998H5.0001C3.39847 21.8998 2.1001 20.6015 2.1001 18.9998L2.1001 13.9998H3.9001L3.9001 18.9998C3.9001 19.6074 4.39258 20.0998 5.0001 20.0998L19.0001 20.0998C19.6076 20.0998 20.1001 19.6074 20.1001 18.9998V13.9998L21.9001 13.9998V18.9998Z" />
<path fill-rule="evenodd" clip-rule="evenodd" d="M12.9001 4.09984V16.8998L11.1001 16.8998L11.1001 4.09984L12.9001 4.09984Z" />
<path fill-rule="evenodd" clip-rule="evenodd" d="M16.0001 9.27264L12.0001 5.27263L8.0001 9.27264L6.72731 7.99984L12.0001 2.72705L17.2729 7.99984L16.0001 9.27264Z" />
</svg>
