<svg width="24" height="24" viewBox="0 0 24 24" fill="currentColor" xmlns="http://www.w3.org/2000/svg">
<path fill-rule="evenodd" clip-rule="evenodd" d="M3.08674 11.9501C4.99847 15.7372 8.55774 18 12 18C15.4345 18 18.9857 15.7472 20.9004 11.9752C20.1896 10.4486 18.915 9.00015 17.3609 7.90363C15.6718 6.71185 13.7443 6 12 6C8.49757 6 4.55936 8.30583 3.08674 11.9501ZM1.05557 11.6712C2.71059 6.91827 7.6222 4 12 4C14.2556 4 16.5781 4.90354 18.514 6.26945C20.4515 7.63652 22.0937 9.53096 22.9291 11.6302L23.0883 12.0304L22.907 12.4211C20.7687 17.0265 16.4467 20 12 20C7.55319 20 3.23116 17.0265 1.09295 12.4211L0.922363 12.0537L1.05557 11.6712Z" />
<path fill-rule="evenodd" clip-rule="evenodd" d="M12 19C16 19 20 16.3077 22 12C20.5 8.23077 16 5 12 5C8 5 3.5 7.69231 2 12C4 16.3077 8 19 12 19ZM12 17C14.7614 17 17 14.7614 17 12C17 9.23858 14.7614 7 12 7C9.23858 7 7 9.23858 7 12C7 14.7614 9.23858 17 12 17Z" />
<circle cx="12" cy="12" r="3" fill='currentColor'/>
</svg>
