<svg width="24" height="24" viewBox="0 0 24 24" fill="currentColor" xmlns="http://www.w3.org/2000/svg">
<path fill-rule="evenodd" clip-rule="evenodd" d="M9.40186 2.5C10.5566 0.5 13.4433 0.5 14.598 2.5L23.2583 17.5C24.413 19.5 22.9696 22 20.6602 22H3.33968C1.03028 22 -0.413096 19.5 0.741605 17.5L9.40186 2.5ZM12.866 3.5C12.4811 2.83333 11.5188 2.83333 11.1339 3.5L2.47366 18.5C2.08875 19.1667 2.56988 20 3.33968 20H20.6602C21.43 20 21.9111 19.1667 21.5262 18.5L12.866 3.5Z" />
<path fill-rule="evenodd" clip-rule="evenodd" d="M12.1249 6.875C12.7463 6.875 13.2499 7.37868 13.2499 8V12.75C13.2499 13.3713 12.7463 13.875 12.1249 13.875C11.5036 13.875 10.9999 13.3713 10.9999 12.75V8C10.9999 7.37868 11.5036 6.875 12.1249 6.875ZM12.1249 15.375C12.7463 15.375 13.2499 15.8787 13.2499 16.5V17.25C13.2499 17.8713 12.7463 18.375 12.1249 18.375C11.5036 18.375 10.9999 17.8713 10.9999 17.25V16.5C10.9999 15.8787 11.5036 15.375 12.1249 15.375Z" />
</svg>
