<svg width="24" height="24" viewBox="0 0 24 24" fill="currentColor" xmlns="http://www.w3.org/2000/svg">
<path fill-rule="evenodd" clip-rule="evenodd" d="M16.7093 2.6026C17.3917 1.9326 18.4926 1.9326 19.1749 2.6026L21.3347 4.72324C22.0886 5.46342 22.0886 6.67441 21.3347 7.41459L6.84438 21.6423C6.67609 21.8075 6.44967 21.9001 6.21383 21.9001H3.0001C2.50304 21.9001 2.1001 21.4972 2.1001 21.0001V17.5897C2.1001 17.3452 2.19961 17.1112 2.37575 16.9415L12.7599 6.93981L14.0086 8.23625L3.9001 17.9725V20.1001H5.84585L17.2578 8.89499L14.4736 6.17775C14.3027 6.01094 14.2051 5.78304 14.2023 5.54422C14.1995 5.30541 14.2917 5.07528 14.4587 4.9045L16.6963 2.61563L16.7093 2.6026ZM18.5425 7.63361L20.0736 6.13021C20.1089 6.09554 20.1089 6.04229 20.0736 6.00762L17.9428 3.91546L16.3755 5.51871L18.5425 7.63361Z" />
</svg>
