<svg width="24" height="24" viewBox="0 0 24 24" fill="currentColor" xmlns="http://www.w3.org/2000/svg">
<path fill-rule="evenodd" clip-rule="evenodd" d="M14.598 2.5C13.4433 0.5 10.5566 0.5 9.40186 2.5L0.741605 17.5C-0.413096 19.5 1.03028 22 3.33968 22H20.6602C22.9696 22 24.413 19.5 23.2583 17.5L14.598 2.5ZM13.25 8C13.25 7.37868 12.7463 6.875 12.125 6.875C11.5037 6.875 11 7.37868 11 8V12.75C11 13.3713 11.5037 13.875 12.125 13.875C12.7463 13.875 13.25 13.3713 13.25 12.75V8ZM13.25 16.5C13.25 15.8787 12.7463 15.375 12.125 15.375C11.5037 15.375 11 15.8787 11 16.5V17.25C11 17.8713 11.5037 18.375 12.125 18.375C12.7463 18.375 13.25 17.8713 13.25 17.25V16.5Z" />
</svg>
