<svg width="24" height="24" viewBox="0 0 24 24" fill="currentColor" xmlns="http://www.w3.org/2000/svg">
<path fill-rule="evenodd" clip-rule="evenodd" d="M1.57466 1.84337C2.35522 1.0422 3.63746 1.02549 4.43862 1.80605L22.388 19.2937C23.1892 20.0743 23.2059 21.3565 22.4253 22.1577C21.6448 22.9588 20.3625 22.9755 19.5614 22.195L1.61198 4.70733C0.810811 3.92677 0.794104 2.64453 1.57466 1.84337Z" />
<path fill-rule="evenodd" clip-rule="evenodd" d="M22.1588 1.57466C21.3576 0.794104 20.0754 0.810811 19.2949 1.61198L1.80719 19.5614C1.02664 20.3625 1.04334 21.6448 1.84451 22.4253C2.64568 23.2059 3.92792 23.1892 4.70848 22.388L22.1961 4.43862C22.9767 3.63746 22.96 2.35522 22.1588 1.57466Z" />
</svg>
