<svg width="24" height="24" viewBox="0 0 24 24" fill="currentColor" xmlns="http://www.w3.org/2000/svg">
<path d="M18.6152 2.4588C19.3283 1.72724 20.4995 1.71178 21.2314 2.42463C21.9634 3.13777 21.9787 4.30983 21.2656 5.04181L14.5663 11.9168L21.4404 18.6141C22.1723 19.3272 22.1877 20.4983 21.4745 21.2303C20.7614 21.9622 19.5903 21.9776 18.8583 21.2645L11.9843 14.5672L5.28803 21.4412C4.57499 22.1729 3.40377 22.1881 2.67181 21.4754C1.93984 20.7623 1.92449 19.5902 2.63763 18.8582L9.33392 11.9842L2.45892 5.28693C1.72713 4.57383 1.71181 3.40267 2.42474 2.67072C3.13789 1.93874 4.30995 1.92339 5.04193 2.63654L11.916 9.33381L18.6152 2.4588Z" />
</svg>
