<svg width="24" height="24" viewBox="0 0 24 24" fill="currentColor" xmlns="http://www.w3.org/2000/svg">
<path d="M18.6147 2.45947C19.3279 1.72752 20.499 1.71222 21.231 2.42529C21.9629 3.13844 21.9783 4.30953 21.2651 5.0415L14.5669 11.9165L21.4409 18.6138C22.1729 19.3269 22.1882 20.499 21.4751 21.231C20.7619 21.9628 19.5898 21.9773 18.8579 21.2642L11.9839 14.5669L5.2876 21.4409C4.57443 22.1727 3.40329 22.1882 2.67139 21.4751C1.93951 20.762 1.92436 19.5909 2.63721 18.8589L9.3335 11.9849L2.4585 5.2876C1.72653 4.57445 1.71215 3.40238 2.42529 2.67041C3.13844 1.93871 4.3096 1.92325 5.0415 2.63623L11.9165 9.3335L18.6147 2.45947Z" fill="currentColor"/>
</svg>
