<svg width="24" height="24" viewBox="0 0 24 24" fill="currentColor" xmlns="http://www.w3.org/2000/svg">
<path fill-rule="evenodd" clip-rule="evenodd" d="M1.76155 2.02439C2.52437 1.24144 3.77747 1.22511 4.56042 1.98793L22.1019 19.0781C22.8848 19.841 22.9012 21.0941 22.1383 21.877C21.3755 22.66 20.1224 22.6763 19.3395 21.9135L1.79802 4.82327C1.01506 4.06045 0.998734 2.80735 1.76155 2.02439Z" />
<path fill-rule="evenodd" clip-rule="evenodd" d="M21.8779 1.7618C21.0949 0.998979 19.8418 1.01531 19.079 1.79826L1.9888 19.3397C1.22598 20.1227 1.24231 21.3758 2.02527 22.1386C2.80823 22.9014 4.06133 22.8851 4.82414 22.1021L21.9144 4.56067C22.6772 3.77771 22.6608 2.52461 21.8779 1.7618Z" />
</svg>
